ISO-10303-21;
HEADER;
/* Generated by software containing ST-Developer
 * from STEP Tools, Inc. (www.steptools.com) 
 */

FILE_DESCRIPTION(
/* description */ (''),
/* implementation_level */ '2;1');

FILE_NAME(
/* name */ 'bottom.step',
/* time_stamp */ '2026-09-12T11:24:10-07:00',
/* author */ (''),
/* organization */ (''),
/* preprocessor_version */ 'ST-DEVELOPER v20.1',
/* originating_system */ 'Autodesk Translation Framework v15.8.0.0',
/* authorisation */ '');

FILE_SCHEMA (('AUTOMOTIVE_DESIGN { 1 0 10303 214 3 1 1 }'));
ENDSEC;

DATA;
#10=MECHANICAL_DESIGN_GEOMETRIC_PRESENTATION_REPRESENTATION('',(#13),#655);
#11=SHAPE_REPRESENTATION_RELATIONSHIP('SRR','None',#662,#12);
#12=ADVANCED_BREP_SHAPE_REPRESENTATION('',(#14),#654);
#13=STYLED_ITEM('',(#671),#14);
#14=MANIFOLD_SOLID_BREP('Body1',#401);
#15=FACE_BOUND('',#73,.T.);
#16=FACE_BOUND('',#76,.T.);
#17=FACE_BOUND('',#77,.T.);
#18=FACE_BOUND('',#78,.T.);
#19=FACE_BOUND('',#79,.T.);
#20=FACE_BOUND('',#80,.T.);
#21=FACE_BOUND('',#83,.T.);
#22=FACE_BOUND('',#84,.T.);
#23=FACE_BOUND('',#85,.T.);
#24=FACE_BOUND('',#86,.T.);
#25=CIRCLE('',#425,1.45);
#26=CIRCLE('',#426,1.45);
#27=CIRCLE('',#428,1.45);
#28=CIRCLE('',#429,1.45);
#29=CIRCLE('',#431,1.45);
#30=CIRCLE('',#432,1.45);
#31=CIRCLE('',#434,1.45);
#32=CIRCLE('',#435,1.45);
#33=CYLINDRICAL_SURFACE('',#424,1.45);
#34=CYLINDRICAL_SURFACE('',#427,1.45);
#35=CYLINDRICAL_SURFACE('',#430,1.45);
#36=CYLINDRICAL_SURFACE('',#433,1.45);
#37=FACE_OUTER_BOUND('',#57,.T.);
#38=FACE_OUTER_BOUND('',#58,.T.);
#39=FACE_OUTER_BOUND('',#59,.T.);
#40=FACE_OUTER_BOUND('',#60,.T.);
#41=FACE_OUTER_BOUND('',#61,.T.);
#42=FACE_OUTER_BOUND('',#62,.T.);
#43=FACE_OUTER_BOUND('',#63,.T.);
#44=FACE_OUTER_BOUND('',#64,.T.);
#45=FACE_OUTER_BOUND('',#65,.T.);
#46=FACE_OUTER_BOUND('',#66,.T.);
#47=FACE_OUTER_BOUND('',#67,.T.);
#48=FACE_OUTER_BOUND('',#68,.T.);
#49=FACE_OUTER_BOUND('',#69,.T.);
#50=FACE_OUTER_BOUND('',#70,.T.);
#51=FACE_OUTER_BOUND('',#71,.T.);
#52=FACE_OUTER_BOUND('',#72,.T.);
#53=FACE_OUTER_BOUND('',#74,.T.);
#54=FACE_OUTER_BOUND('',#75,.T.);
#55=FACE_OUTER_BOUND('',#81,.T.);
#56=FACE_OUTER_BOUND('',#82,.T.);
#57=EDGE_LOOP('',(#261,#262,#263,#264));
#58=EDGE_LOOP('',(#265,#266,#267,#268));
#59=EDGE_LOOP('',(#269,#270,#271,#272,#273));
#60=EDGE_LOOP('',(#274,#275,#276,#277));
#61=EDGE_LOOP('',(#278,#279,#280,#281,#282));
#62=EDGE_LOOP('',(#283,#284,#285,#286,#287,#288,#289,#290));
#63=EDGE_LOOP('',(#291,#292,#293,#294));
#64=EDGE_LOOP('',(#295,#296,#297,#298));
#65=EDGE_LOOP('',(#299,#300,#301,#302));
#66=EDGE_LOOP('',(#303,#304,#305,#306));
#67=EDGE_LOOP('',(#307,#308,#309,#310));
#68=EDGE_LOOP('',(#311,#312,#313,#314));
#69=EDGE_LOOP('',(#315,#316,#317,#318));
#70=EDGE_LOOP('',(#319,#320,#321,#322));
#71=EDGE_LOOP('',(#323,#324,#325,#326));
#72=EDGE_LOOP('',(#327,#328,#329,#330));
#73=EDGE_LOOP('',(#331,#332,#333,#334));
#74=EDGE_LOOP('',(#335,#336,#337,#338));
#75=EDGE_LOOP('',(#339,#340,#341,#342));
#76=EDGE_LOOP('',(#343));
#77=EDGE_LOOP('',(#344));
#78=EDGE_LOOP('',(#345));
#79=EDGE_LOOP('',(#346));
#80=EDGE_LOOP('',(#347,#348,#349,#350));
#81=EDGE_LOOP('',(#351,#352,#353,#354,#355,#356));
#82=EDGE_LOOP('',(#357,#358,#359,#360));
#83=EDGE_LOOP('',(#361));
#84=EDGE_LOOP('',(#362));
#85=EDGE_LOOP('',(#363));
#86=EDGE_LOOP('',(#364));
#87=LINE('',#549,#131);
#88=LINE('',#551,#132);
#89=LINE('',#553,#133);
#90=LINE('',#554,#134);
#91=LINE('',#558,#135);
#92=LINE('',#560,#136);
#93=LINE('',#562,#137);
#94=LINE('',#563,#138);
#95=LINE('',#566,#139);
#96=LINE('',#567,#140);
#97=LINE('',#568,#141);
#98=LINE('',#571,#142);
#99=LINE('',#572,#143);
#100=LINE('',#574,#144);
#101=LINE('',#575,#145);
#102=LINE('',#578,#146);
#103=LINE('',#580,#147);
#104=LINE('',#582,#148);
#105=LINE('',#584,#149);
#106=LINE('',#585,#150);
#107=LINE('',#588,#151);
#108=LINE('',#590,#152);
#109=LINE('',#591,#153);
#110=LINE('',#594,#154);
#111=LINE('',#596,#155);
#112=LINE('',#597,#156);
#113=LINE('',#599,#157);
#114=LINE('',#600,#158);
#115=LINE('',#605,#159);
#116=LINE('',#611,#160);
#117=LINE('',#617,#161);
#118=LINE('',#623,#162);
#119=LINE('',#628,#163);
#120=LINE('',#630,#164);
#121=LINE('',#632,#165);
#122=LINE('',#633,#166);
#123=LINE('',#636,#167);
#124=LINE('',#638,#168);
#125=LINE('',#639,#169);
#126=LINE('',#642,#170);
#127=LINE('',#644,#171);
#128=LINE('',#645,#172);
#129=LINE('',#647,#173);
#130=LINE('',#648,#174);
#131=VECTOR('',#447,10.);
#132=VECTOR('',#448,10.);
#133=VECTOR('',#449,10.);
#134=VECTOR('',#450,10.);
#135=VECTOR('',#453,10.);
#136=VECTOR('',#454,10.);
#137=VECTOR('',#455,10.);
#138=VECTOR('',#456,10.);
#139=VECTOR('',#459,10.);
#140=VECTOR('',#460,10.);
#141=VECTOR('',#461,10.);
#142=VECTOR('',#464,10.);
#143=VECTOR('',#465,10.);
#144=VECTOR('',#468,10.);
#145=VECTOR('',#469,10.);
#146=VECTOR('',#472,10.);
#147=VECTOR('',#473,10.);
#148=VECTOR('',#474,10.);
#149=VECTOR('',#475,10.);
#150=VECTOR('',#476,10.);
#151=VECTOR('',#479,10.);
#152=VECTOR('',#480,10.);
#153=VECTOR('',#481,10.);
#154=VECTOR('',#484,10.);
#155=VECTOR('',#485,10.);
#156=VECTOR('',#486,10.);
#157=VECTOR('',#489,10.);
#158=VECTOR('',#490,10.);
#159=VECTOR('',#495,1.45);
#160=VECTOR('',#502,1.45);
#161=VECTOR('',#509,1.45);
#162=VECTOR('',#516,1.45);
#163=VECTOR('',#521,10.);
#164=VECTOR('',#522,10.);
#165=VECTOR('',#523,10.);
#166=VECTOR('',#524,10.);
#167=VECTOR('',#527,10.);
#168=VECTOR('',#528,10.);
#169=VECTOR('',#529,10.);
#170=VECTOR('',#532,10.);
#171=VECTOR('',#533,10.);
#172=VECTOR('',#534,10.);
#173=VECTOR('',#537,10.);
#174=VECTOR('',#538,10.);
#175=VERTEX_POINT('',#547);
#176=VERTEX_POINT('',#548);
#177=VERTEX_POINT('',#550);
#178=VERTEX_POINT('',#552);
#179=VERTEX_POINT('',#556);
#180=VERTEX_POINT('',#557);
#181=VERTEX_POINT('',#559);
#182=VERTEX_POINT('',#561);
#183=VERTEX_POINT('',#565);
#184=VERTEX_POINT('',#570);
#185=VERTEX_POINT('',#577);
#186=VERTEX_POINT('',#579);
#187=VERTEX_POINT('',#581);
#188=VERTEX_POINT('',#583);
#189=VERTEX_POINT('',#587);
#190=VERTEX_POINT('',#589);
#191=VERTEX_POINT('',#593);
#192=VERTEX_POINT('',#595);
#193=VERTEX_POINT('',#602);
#194=VERTEX_POINT('',#604);
#195=VERTEX_POINT('',#608);
#196=VERTEX_POINT('',#610);
#197=VERTEX_POINT('',#614);
#198=VERTEX_POINT('',#616);
#199=VERTEX_POINT('',#620);
#200=VERTEX_POINT('',#622);
#201=VERTEX_POINT('',#626);
#202=VERTEX_POINT('',#627);
#203=VERTEX_POINT('',#629);
#204=VERTEX_POINT('',#631);
#205=VERTEX_POINT('',#635);
#206=VERTEX_POINT('',#637);
#207=VERTEX_POINT('',#641);
#208=VERTEX_POINT('',#643);
#209=EDGE_CURVE('',#175,#176,#87,.T.);
#210=EDGE_CURVE('',#177,#175,#88,.T.);
#211=EDGE_CURVE('',#178,#177,#89,.T.);
#212=EDGE_CURVE('',#176,#178,#90,.T.);
#213=EDGE_CURVE('',#179,#180,#91,.T.);
#214=EDGE_CURVE('',#179,#181,#92,.T.);
#215=EDGE_CURVE('',#182,#181,#93,.T.);
#216=EDGE_CURVE('',#180,#182,#94,.T.);
#217=EDGE_CURVE('',#183,#179,#95,.T.);
#218=EDGE_CURVE('',#183,#177,#96,.T.);
#219=EDGE_CURVE('',#181,#175,#97,.T.);
#220=EDGE_CURVE('',#184,#183,#98,.T.);
#221=EDGE_CURVE('',#184,#178,#99,.T.);
#222=EDGE_CURVE('',#180,#184,#100,.T.);
#223=EDGE_CURVE('',#176,#182,#101,.T.);
#224=EDGE_CURVE('',#185,#175,#102,.T.);
#225=EDGE_CURVE('',#185,#186,#103,.T.);
#226=EDGE_CURVE('',#187,#186,#104,.T.);
#227=EDGE_CURVE('',#188,#187,#105,.T.);
#228=EDGE_CURVE('',#176,#188,#106,.T.);
#229=EDGE_CURVE('',#189,#185,#107,.T.);
#230=EDGE_CURVE('',#189,#190,#108,.T.);
#231=EDGE_CURVE('',#186,#190,#109,.T.);
#232=EDGE_CURVE('',#188,#191,#110,.T.);
#233=EDGE_CURVE('',#192,#187,#111,.T.);
#234=EDGE_CURVE('',#191,#192,#112,.T.);
#235=EDGE_CURVE('',#191,#189,#113,.T.);
#236=EDGE_CURVE('',#190,#192,#114,.T.);
#237=EDGE_CURVE('',#193,#193,#25,.T.);
#238=EDGE_CURVE('',#193,#194,#115,.T.);
#239=EDGE_CURVE('',#194,#194,#26,.T.);
#240=EDGE_CURVE('',#195,#195,#27,.T.);
#241=EDGE_CURVE('',#195,#196,#116,.T.);
#242=EDGE_CURVE('',#196,#196,#28,.T.);
#243=EDGE_CURVE('',#197,#197,#29,.T.);
#244=EDGE_CURVE('',#197,#198,#117,.T.);
#245=EDGE_CURVE('',#198,#198,#30,.T.);
#246=EDGE_CURVE('',#199,#199,#31,.T.);
#247=EDGE_CURVE('',#199,#200,#118,.T.);
#248=EDGE_CURVE('',#200,#200,#32,.T.);
#249=EDGE_CURVE('',#201,#202,#119,.T.);
#250=EDGE_CURVE('',#201,#203,#120,.T.);
#251=EDGE_CURVE('',#204,#203,#121,.T.);
#252=EDGE_CURVE('',#202,#204,#122,.T.);
#253=EDGE_CURVE('',#202,#205,#123,.T.);
#254=EDGE_CURVE('',#206,#204,#124,.T.);
#255=EDGE_CURVE('',#205,#206,#125,.T.);
#256=EDGE_CURVE('',#205,#207,#126,.T.);
#257=EDGE_CURVE('',#208,#206,#127,.T.);
#258=EDGE_CURVE('',#207,#208,#128,.T.);
#259=EDGE_CURVE('',#207,#201,#129,.T.);
#260=EDGE_CURVE('',#203,#208,#130,.T.);
#261=ORIENTED_EDGE('',*,*,#209,.F.);
#262=ORIENTED_EDGE('',*,*,#210,.F.);
#263=ORIENTED_EDGE('',*,*,#211,.F.);
#264=ORIENTED_EDGE('',*,*,#212,.F.);
#265=ORIENTED_EDGE('',*,*,#213,.F.);
#266=ORIENTED_EDGE('',*,*,#214,.T.);
#267=ORIENTED_EDGE('',*,*,#215,.F.);
#268=ORIENTED_EDGE('',*,*,#216,.F.);
#269=ORIENTED_EDGE('',*,*,#217,.F.);
#270=ORIENTED_EDGE('',*,*,#218,.T.);
#271=ORIENTED_EDGE('',*,*,#210,.T.);
#272=ORIENTED_EDGE('',*,*,#219,.F.);
#273=ORIENTED_EDGE('',*,*,#214,.F.);
#274=ORIENTED_EDGE('',*,*,#220,.F.);
#275=ORIENTED_EDGE('',*,*,#221,.T.);
#276=ORIENTED_EDGE('',*,*,#211,.T.);
#277=ORIENTED_EDGE('',*,*,#218,.F.);
#278=ORIENTED_EDGE('',*,*,#222,.F.);
#279=ORIENTED_EDGE('',*,*,#216,.T.);
#280=ORIENTED_EDGE('',*,*,#223,.F.);
#281=ORIENTED_EDGE('',*,*,#212,.T.);
#282=ORIENTED_EDGE('',*,*,#221,.F.);
#283=ORIENTED_EDGE('',*,*,#219,.T.);
#284=ORIENTED_EDGE('',*,*,#224,.F.);
#285=ORIENTED_EDGE('',*,*,#225,.T.);
#286=ORIENTED_EDGE('',*,*,#226,.F.);
#287=ORIENTED_EDGE('',*,*,#227,.F.);
#288=ORIENTED_EDGE('',*,*,#228,.F.);
#289=ORIENTED_EDGE('',*,*,#223,.T.);
#290=ORIENTED_EDGE('',*,*,#215,.T.);
#291=ORIENTED_EDGE('',*,*,#229,.F.);
#292=ORIENTED_EDGE('',*,*,#230,.T.);
#293=ORIENTED_EDGE('',*,*,#231,.F.);
#294=ORIENTED_EDGE('',*,*,#225,.F.);
#295=ORIENTED_EDGE('',*,*,#232,.F.);
#296=ORIENTED_EDGE('',*,*,#227,.T.);
#297=ORIENTED_EDGE('',*,*,#233,.F.);
#298=ORIENTED_EDGE('',*,*,#234,.F.);
#299=ORIENTED_EDGE('',*,*,#235,.F.);
#300=ORIENTED_EDGE('',*,*,#234,.T.);
#301=ORIENTED_EDGE('',*,*,#236,.F.);
#302=ORIENTED_EDGE('',*,*,#230,.F.);
#303=ORIENTED_EDGE('',*,*,#237,.F.);
#304=ORIENTED_EDGE('',*,*,#238,.T.);
#305=ORIENTED_EDGE('',*,*,#239,.T.);
#306=ORIENTED_EDGE('',*,*,#238,.F.);
#307=ORIENTED_EDGE('',*,*,#240,.F.);
#308=ORIENTED_EDGE('',*,*,#241,.T.);
#309=ORIENTED_EDGE('',*,*,#242,.T.);
#310=ORIENTED_EDGE('',*,*,#241,.F.);
#311=ORIENTED_EDGE('',*,*,#243,.F.);
#312=ORIENTED_EDGE('',*,*,#244,.T.);
#313=ORIENTED_EDGE('',*,*,#245,.T.);
#314=ORIENTED_EDGE('',*,*,#244,.F.);
#315=ORIENTED_EDGE('',*,*,#246,.F.);
#316=ORIENTED_EDGE('',*,*,#247,.T.);
#317=ORIENTED_EDGE('',*,*,#248,.T.);
#318=ORIENTED_EDGE('',*,*,#247,.F.);
#319=ORIENTED_EDGE('',*,*,#249,.F.);
#320=ORIENTED_EDGE('',*,*,#250,.T.);
#321=ORIENTED_EDGE('',*,*,#251,.F.);
#322=ORIENTED_EDGE('',*,*,#252,.F.);
#323=ORIENTED_EDGE('',*,*,#253,.F.);
#324=ORIENTED_EDGE('',*,*,#252,.T.);
#325=ORIENTED_EDGE('',*,*,#254,.F.);
#326=ORIENTED_EDGE('',*,*,#255,.F.);
#327=ORIENTED_EDGE('',*,*,#256,.F.);
#328=ORIENTED_EDGE('',*,*,#255,.T.);
#329=ORIENTED_EDGE('',*,*,#257,.F.);
#330=ORIENTED_EDGE('',*,*,#258,.F.);
#331=ORIENTED_EDGE('',*,*,#213,.T.);
#332=ORIENTED_EDGE('',*,*,#222,.T.);
#333=ORIENTED_EDGE('',*,*,#220,.T.);
#334=ORIENTED_EDGE('',*,*,#217,.T.);
#335=ORIENTED_EDGE('',*,*,#259,.F.);
#336=ORIENTED_EDGE('',*,*,#258,.T.);
#337=ORIENTED_EDGE('',*,*,#260,.F.);
#338=ORIENTED_EDGE('',*,*,#250,.F.);
#339=ORIENTED_EDGE('',*,*,#260,.T.);
#340=ORIENTED_EDGE('',*,*,#257,.T.);
#341=ORIENTED_EDGE('',*,*,#254,.T.);
#342=ORIENTED_EDGE('',*,*,#251,.T.);
#343=ORIENTED_EDGE('',*,*,#246,.T.);
#344=ORIENTED_EDGE('',*,*,#243,.T.);
#345=ORIENTED_EDGE('',*,*,#240,.T.);
#346=ORIENTED_EDGE('',*,*,#237,.T.);
#347=ORIENTED_EDGE('',*,*,#231,.T.);
#348=ORIENTED_EDGE('',*,*,#236,.T.);
#349=ORIENTED_EDGE('',*,*,#233,.T.);
#350=ORIENTED_EDGE('',*,*,#226,.T.);
#351=ORIENTED_EDGE('',*,*,#229,.T.);
#352=ORIENTED_EDGE('',*,*,#224,.T.);
#353=ORIENTED_EDGE('',*,*,#209,.T.);
#354=ORIENTED_EDGE('',*,*,#228,.T.);
#355=ORIENTED_EDGE('',*,*,#232,.T.);
#356=ORIENTED_EDGE('',*,*,#235,.T.);
#357=ORIENTED_EDGE('',*,*,#259,.T.);
#358=ORIENTED_EDGE('',*,*,#249,.T.);
#359=ORIENTED_EDGE('',*,*,#253,.T.);
#360=ORIENTED_EDGE('',*,*,#256,.T.);
#361=ORIENTED_EDGE('',*,*,#239,.F.);
#362=ORIENTED_EDGE('',*,*,#242,.F.);
#363=ORIENTED_EDGE('',*,*,#245,.F.);
#364=ORIENTED_EDGE('',*,*,#248,.F.);
#365=PLANE('',#415);
#366=PLANE('',#416);
#367=PLANE('',#417);
#368=PLANE('',#418);
#369=PLANE('',#419);
#370=PLANE('',#420);
#371=PLANE('',#421);
#372=PLANE('',#422);
#373=PLANE('',#423);
#374=PLANE('',#436);
#375=PLANE('',#437);
#376=PLANE('',#438);
#377=PLANE('',#439);
#378=PLANE('',#440);
#379=PLANE('',#441);
#380=PLANE('',#442);
#381=ADVANCED_FACE('',(#37),#365,.F.);
#382=ADVANCED_FACE('',(#38),#366,.F.);
#383=ADVANCED_FACE('',(#39),#367,.F.);
#384=ADVANCED_FACE('',(#40),#368,.F.);
#385=ADVANCED_FACE('',(#41),#369,.F.);
#386=ADVANCED_FACE('',(#42),#370,.T.);
#387=ADVANCED_FACE('',(#43),#371,.T.);
#388=ADVANCED_FACE('',(#44),#372,.T.);
#389=ADVANCED_FACE('',(#45),#373,.T.);
#390=ADVANCED_FACE('',(#46),#33,.F.);
#391=ADVANCED_FACE('',(#47),#34,.F.);
#392=ADVANCED_FACE('',(#48),#35,.F.);
#393=ADVANCED_FACE('',(#49),#36,.F.);
#394=ADVANCED_FACE('',(#50),#374,.T.);
#395=ADVANCED_FACE('',(#51),#375,.T.);
#396=ADVANCED_FACE('',(#52,#15),#376,.T.);
#397=ADVANCED_FACE('',(#53),#377,.T.);
#398=ADVANCED_FACE('',(#54,#16,#17,#18,#19,#20),#378,.T.);
#399=ADVANCED_FACE('',(#55),#379,.T.);
#400=ADVANCED_FACE('',(#56,#21,#22,#23,#24),#380,.F.);
#401=CLOSED_SHELL('',(#381,#382,#383,#384,#385,#386,#387,#388,#389,#390,
#391,#392,#393,#394,#395,#396,#397,#398,#399,#400));
#402=DERIVED_UNIT_ELEMENT(#404,1.);
#403=DERIVED_UNIT_ELEMENT(#657,-3.);
#404=(
MASS_UNIT()
NAMED_UNIT(*)
SI_UNIT(.KILO.,.GRAM.)
);
#405=DERIVED_UNIT((#402,#403));
#406=MEASURE_REPRESENTATION_ITEM('density measure',
POSITIVE_RATIO_MEASURE(7850.),#405);
#407=PROPERTY_DEFINITION_REPRESENTATION(#412,#409);
#408=PROPERTY_DEFINITION_REPRESENTATION(#413,#410);
#409=REPRESENTATION('material name',(#411),#654);
#410=REPRESENTATION('density',(#406),#654);
#411=DESCRIPTIVE_REPRESENTATION_ITEM('Steel','Steel');
#412=PROPERTY_DEFINITION('material property','material name',#664);
#413=PROPERTY_DEFINITION('material property','density of part',#664);
#414=AXIS2_PLACEMENT_3D('',#545,#443,#444);
#415=AXIS2_PLACEMENT_3D('',#546,#445,#446);
#416=AXIS2_PLACEMENT_3D('',#555,#451,#452);
#417=AXIS2_PLACEMENT_3D('',#564,#457,#458);
#418=AXIS2_PLACEMENT_3D('',#569,#462,#463);
#419=AXIS2_PLACEMENT_3D('',#573,#466,#467);
#420=AXIS2_PLACEMENT_3D('',#576,#470,#471);
#421=AXIS2_PLACEMENT_3D('',#586,#477,#478);
#422=AXIS2_PLACEMENT_3D('',#592,#482,#483);
#423=AXIS2_PLACEMENT_3D('',#598,#487,#488);
#424=AXIS2_PLACEMENT_3D('',#601,#491,#492);
#425=AXIS2_PLACEMENT_3D('',#603,#493,#494);
#426=AXIS2_PLACEMENT_3D('',#606,#496,#497);
#427=AXIS2_PLACEMENT_3D('',#607,#498,#499);
#428=AXIS2_PLACEMENT_3D('',#609,#500,#501);
#429=AXIS2_PLACEMENT_3D('',#612,#503,#504);
#430=AXIS2_PLACEMENT_3D('',#613,#505,#506);
#431=AXIS2_PLACEMENT_3D('',#615,#507,#508);
#432=AXIS2_PLACEMENT_3D('',#618,#510,#511);
#433=AXIS2_PLACEMENT_3D('',#619,#512,#513);
#434=AXIS2_PLACEMENT_3D('',#621,#514,#515);
#435=AXIS2_PLACEMENT_3D('',#624,#517,#518);
#436=AXIS2_PLACEMENT_3D('',#625,#519,#520);
#437=AXIS2_PLACEMENT_3D('',#634,#525,#526);
#438=AXIS2_PLACEMENT_3D('',#640,#530,#531);
#439=AXIS2_PLACEMENT_3D('',#646,#535,#536);
#440=AXIS2_PLACEMENT_3D('',#649,#539,#540);
#441=AXIS2_PLACEMENT_3D('',#650,#541,#542);
#442=AXIS2_PLACEMENT_3D('',#651,#543,#544);
#443=DIRECTION('axis',(0.,0.,1.));
#444=DIRECTION('refdir',(1.,0.,0.));
#445=DIRECTION('center_axis',(-1.,0.,0.));
#446=DIRECTION('ref_axis',(0.,0.,1.));
#447=DIRECTION('',(0.,1.,0.));
#448=DIRECTION('',(0.,0.,1.));
#449=DIRECTION('',(0.,-1.,0.));
#450=DIRECTION('',(0.,0.,-1.));
#451=DIRECTION('center_axis',(0.,0.,1.));
#452=DIRECTION('ref_axis',(0.,1.,0.));
#453=DIRECTION('',(0.,1.,0.));
#454=DIRECTION('',(-1.,0.,0.));
#455=DIRECTION('',(0.,-1.,0.));
#456=DIRECTION('',(-1.,0.,0.));
#457=DIRECTION('center_axis',(0.,-1.,0.));
#458=DIRECTION('ref_axis',(0.,0.,1.));
#459=DIRECTION('',(0.,0.,1.));
#460=DIRECTION('',(-1.,0.,0.));
#461=DIRECTION('',(0.,0.,-1.));
#462=DIRECTION('center_axis',(0.,0.,-1.));
#463=DIRECTION('ref_axis',(0.,-1.,0.));
#464=DIRECTION('',(0.,-1.,0.));
#465=DIRECTION('',(-1.,0.,0.));
#466=DIRECTION('center_axis',(0.,1.,0.));
#467=DIRECTION('ref_axis',(0.,0.,-1.));
#468=DIRECTION('',(0.,0.,-1.));
#469=DIRECTION('',(0.,0.,1.));
#470=DIRECTION('center_axis',(-1.,0.,0.));
#471=DIRECTION('ref_axis',(0.,-1.,0.));
#472=DIRECTION('',(0.,1.,0.));
#473=DIRECTION('',(0.,0.,1.));
#474=DIRECTION('',(0.,-1.,0.));
#475=DIRECTION('',(0.,0.,1.));
#476=DIRECTION('',(0.,1.,0.));
#477=DIRECTION('center_axis',(0.,1.,0.));
#478=DIRECTION('ref_axis',(-1.,0.,0.));
#479=DIRECTION('',(1.,0.,0.));
#480=DIRECTION('',(0.,0.,1.));
#481=DIRECTION('',(-1.,0.,0.));
#482=DIRECTION('center_axis',(0.,-1.,0.));
#483=DIRECTION('ref_axis',(1.,0.,0.));
#484=DIRECTION('',(-1.,0.,0.));
#485=DIRECTION('',(1.,0.,0.));
#486=DIRECTION('',(0.,0.,1.));
#487=DIRECTION('center_axis',(1.,0.,0.));
#488=DIRECTION('ref_axis',(0.,1.,0.));
#489=DIRECTION('',(0.,-1.,0.));
#490=DIRECTION('',(0.,1.,0.));
#491=DIRECTION('center_axis',(0.,0.,1.));
#492=DIRECTION('ref_axis',(1.,0.,0.));
#493=DIRECTION('center_axis',(0.,0.,-1.));
#494=DIRECTION('ref_axis',(1.,0.,0.));
#495=DIRECTION('',(0.,0.,-1.));
#496=DIRECTION('center_axis',(0.,0.,-1.));
#497=DIRECTION('ref_axis',(1.,0.,0.));
#498=DIRECTION('center_axis',(0.,0.,1.));
#499=DIRECTION('ref_axis',(1.,0.,0.));
#500=DIRECTION('center_axis',(0.,0.,-1.));
#501=DIRECTION('ref_axis',(1.,0.,0.));
#502=DIRECTION('',(0.,0.,-1.));
#503=DIRECTION('center_axis',(0.,0.,-1.));
#504=DIRECTION('ref_axis',(1.,0.,0.));
#505=DIRECTION('center_axis',(0.,0.,1.));
#506=DIRECTION('ref_axis',(1.,0.,0.));
#507=DIRECTION('center_axis',(0.,0.,-1.));
#508=DIRECTION('ref_axis',(1.,0.,0.));
#509=DIRECTION('',(0.,0.,-1.));
#510=DIRECTION('center_axis',(0.,0.,-1.));
#511=DIRECTION('ref_axis',(1.,0.,0.));
#512=DIRECTION('center_axis',(0.,0.,1.));
#513=DIRECTION('ref_axis',(1.,0.,0.));
#514=DIRECTION('center_axis',(0.,0.,-1.));
#515=DIRECTION('ref_axis',(1.,0.,0.));
#516=DIRECTION('',(0.,0.,-1.));
#517=DIRECTION('center_axis',(0.,0.,-1.));
#518=DIRECTION('ref_axis',(1.,0.,0.));
#519=DIRECTION('center_axis',(-1.,0.,0.));
#520=DIRECTION('ref_axis',(0.,-1.,0.));
#521=DIRECTION('',(0.,1.,0.));
#522=DIRECTION('',(0.,0.,1.));
#523=DIRECTION('',(0.,-1.,0.));
#524=DIRECTION('',(0.,0.,1.));
#525=DIRECTION('center_axis',(0.,1.,0.));
#526=DIRECTION('ref_axis',(-1.,0.,0.));
#527=DIRECTION('',(1.,0.,0.));
#528=DIRECTION('',(-1.,0.,0.));
#529=DIRECTION('',(0.,0.,1.));
#530=DIRECTION('center_axis',(1.,0.,0.));
#531=DIRECTION('ref_axis',(0.,1.,0.));
#532=DIRECTION('',(0.,-1.,0.));
#533=DIRECTION('',(0.,1.,0.));
#534=DIRECTION('',(0.,0.,1.));
#535=DIRECTION('center_axis',(0.,-1.,0.));
#536=DIRECTION('ref_axis',(1.,0.,0.));
#537=DIRECTION('',(-1.,0.,0.));
#538=DIRECTION('',(1.,0.,0.));
#539=DIRECTION('center_axis',(0.,0.,1.));
#540=DIRECTION('ref_axis',(1.,0.,0.));
#541=DIRECTION('center_axis',(0.,0.,1.));
#542=DIRECTION('ref_axis',(1.,0.,0.));
#543=DIRECTION('center_axis',(0.,0.,1.));
#544=DIRECTION('ref_axis',(1.,0.,0.));
#545=CARTESIAN_POINT('',(0.,0.,0.));
#546=CARTESIAN_POINT('Origin',(107.2,69.8068103559032,6.82997881263781));
#547=CARTESIAN_POINT('',(107.2,56.8196401838923,3.));
#548=CARTESIAN_POINT('',(107.2,82.7939805279142,3.));
#549=CARTESIAN_POINT('',(107.2,100.,3.));
#550=CARTESIAN_POINT('',(107.2,56.8196401838923,2.82997881263781));
#551=CARTESIAN_POINT('',(107.2,56.8196401838923,2.82997881263781));
#552=CARTESIAN_POINT('',(107.2,82.7939805279142,2.82997881263781));
#553=CARTESIAN_POINT('',(107.2,82.7939805279142,2.82997881263781));
#554=CARTESIAN_POINT('',(107.2,82.7939805279142,10.8299788126378));
#555=CARTESIAN_POINT('Origin',(117.2,56.8196401838923,10.8299788126378));
#556=CARTESIAN_POINT('',(117.2,56.8196401838923,10.8299788126378));
#557=CARTESIAN_POINT('',(117.2,82.7939805279142,10.8299788126378));
#558=CARTESIAN_POINT('',(117.2,42.1098200919461,10.8299788126378));
#559=CARTESIAN_POINT('',(107.2,56.8196401838923,10.8299788126378));
#560=CARTESIAN_POINT('',(117.2,56.8196401838923,10.8299788126378));
#561=CARTESIAN_POINT('',(107.2,82.7939805279142,10.8299788126378));
#562=CARTESIAN_POINT('',(107.2,78.4098200919461,10.8299788126378));
#563=CARTESIAN_POINT('',(117.2,82.7939805279142,10.8299788126378));
#564=CARTESIAN_POINT('Origin',(117.2,56.8196401838923,2.82997881263781));
#565=CARTESIAN_POINT('',(117.2,56.8196401838923,2.82997881263781));
#566=CARTESIAN_POINT('',(117.2,56.8196401838923,1.4149894063189));
#567=CARTESIAN_POINT('',(117.2,56.8196401838923,2.82997881263781));
#568=CARTESIAN_POINT('',(107.2,56.8196401838923,1.4149894063189));
#569=CARTESIAN_POINT('Origin',(117.2,82.7939805279142,2.82997881263781));
#570=CARTESIAN_POINT('',(117.2,82.7939805279142,2.82997881263781));
#571=CARTESIAN_POINT('',(117.2,55.0969902639571,2.82997881263781));
#572=CARTESIAN_POINT('',(117.2,82.7939805279142,2.82997881263781));
#573=CARTESIAN_POINT('Origin',(117.2,82.7939805279142,10.8299788126378));
#574=CARTESIAN_POINT('',(117.2,82.7939805279142,5.4149894063189));
#575=CARTESIAN_POINT('',(107.2,82.7939805279142,5.4149894063189));
#576=CARTESIAN_POINT('Origin',(107.2,100.,0.));
#577=CARTESIAN_POINT('',(107.2,37.4,3.));
#578=CARTESIAN_POINT('',(107.2,100.,3.));
#579=CARTESIAN_POINT('',(107.2,37.4,13.));
#580=CARTESIAN_POINT('',(107.2,37.4,0.));
#581=CARTESIAN_POINT('',(107.2,100.,13.));
#582=CARTESIAN_POINT('',(107.2,100.,13.));
#583=CARTESIAN_POINT('',(107.2,100.,3.));
#584=CARTESIAN_POINT('',(107.2,100.,0.));
#585=CARTESIAN_POINT('',(107.2,100.,3.));
#586=CARTESIAN_POINT('Origin',(107.2,37.4,0.));
#587=CARTESIAN_POINT('',(40.,37.4,3.));
#588=CARTESIAN_POINT('',(107.2,37.4,3.));
#589=CARTESIAN_POINT('',(40.,37.4,13.));
#590=CARTESIAN_POINT('',(40.,37.4,0.));
#591=CARTESIAN_POINT('',(107.2,37.4,13.));
#592=CARTESIAN_POINT('Origin',(40.,100.,0.));
#593=CARTESIAN_POINT('',(40.,100.,3.));
#594=CARTESIAN_POINT('',(40.,100.,3.));
#595=CARTESIAN_POINT('',(40.,100.,13.));
#596=CARTESIAN_POINT('',(40.,100.,13.));
#597=CARTESIAN_POINT('',(40.,100.,0.));
#598=CARTESIAN_POINT('Origin',(40.,37.4,0.));
#599=CARTESIAN_POINT('',(40.,37.4,3.));
#600=CARTESIAN_POINT('',(40.,37.4,13.));
#601=CARTESIAN_POINT('Origin',(34.5394511944241,104.903672664257,0.));
#602=CARTESIAN_POINT('',(33.0894511944241,104.903672664257,13.));
#603=CARTESIAN_POINT('Origin',(34.5394511944241,104.903672664257,13.));
#604=CARTESIAN_POINT('',(33.0894511944241,104.903672664257,0.));
#605=CARTESIAN_POINT('',(33.0894511944241,104.903672664257,0.));
#606=CARTESIAN_POINT('Origin',(34.5394511944241,104.903672664257,0.));
#607=CARTESIAN_POINT('Origin',(112.065132820874,104.903672664257,0.));
#608=CARTESIAN_POINT('',(110.615132820874,104.903672664257,13.));
#609=CARTESIAN_POINT('Origin',(112.065132820874,104.903672664257,13.));
#610=CARTESIAN_POINT('',(110.615132820874,104.903672664257,0.));
#611=CARTESIAN_POINT('',(110.615132820874,104.903672664257,0.));
#612=CARTESIAN_POINT('Origin',(112.065132820874,104.903672664257,0.));
#613=CARTESIAN_POINT('Origin',(111.22550450001,33.2553892838555,0.));
#614=CARTESIAN_POINT('',(109.77550450001,33.2553892838555,13.));
#615=CARTESIAN_POINT('Origin',(111.22550450001,33.2553892838555,13.));
#616=CARTESIAN_POINT('',(109.77550450001,33.2553892838555,0.));
#617=CARTESIAN_POINT('',(109.77550450001,33.2553892838555,0.));
#618=CARTESIAN_POINT('Origin',(111.22550450001,33.2553892838555,0.));
#619=CARTESIAN_POINT('Origin',(35.0992034083335,32.6956370699461,0.));
#620=CARTESIAN_POINT('',(33.6492034083335,32.6956370699461,13.));
#621=CARTESIAN_POINT('Origin',(35.0992034083335,32.6956370699461,13.));
#622=CARTESIAN_POINT('',(33.6492034083335,32.6956370699461,0.));
#623=CARTESIAN_POINT('',(33.6492034083335,32.6956370699461,0.));
#624=CARTESIAN_POINT('Origin',(35.0992034083335,32.6956370699461,0.));
#625=CARTESIAN_POINT('Origin',(30.,110.,0.));
#626=CARTESIAN_POINT('',(30.,27.4,0.));
#627=CARTESIAN_POINT('',(30.,110.,0.));
#628=CARTESIAN_POINT('',(30.,27.4,0.));
#629=CARTESIAN_POINT('',(30.,27.4,13.));
#630=CARTESIAN_POINT('',(30.,27.4,0.));
#631=CARTESIAN_POINT('',(30.,110.,13.));
#632=CARTESIAN_POINT('',(30.,27.4,13.));
#633=CARTESIAN_POINT('',(30.,110.,0.));
#634=CARTESIAN_POINT('Origin',(117.2,110.,0.));
#635=CARTESIAN_POINT('',(117.2,110.,0.));
#636=CARTESIAN_POINT('',(30.,110.,0.));
#637=CARTESIAN_POINT('',(117.2,110.,13.));
#638=CARTESIAN_POINT('',(30.,110.,13.));
#639=CARTESIAN_POINT('',(117.2,110.,0.));
#640=CARTESIAN_POINT('Origin',(117.2,27.4,0.));
#641=CARTESIAN_POINT('',(117.2,27.4,0.));
#642=CARTESIAN_POINT('',(117.2,110.,0.));
#643=CARTESIAN_POINT('',(117.2,27.4,13.));
#644=CARTESIAN_POINT('',(117.2,110.,13.));
#645=CARTESIAN_POINT('',(117.2,27.4,0.));
#646=CARTESIAN_POINT('Origin',(30.,27.4,0.));
#647=CARTESIAN_POINT('',(117.2,27.4,0.));
#648=CARTESIAN_POINT('',(117.2,27.4,13.));
#649=CARTESIAN_POINT('Origin',(73.6,68.7,13.));
#650=CARTESIAN_POINT('Origin',(73.6,68.7,3.));
#651=CARTESIAN_POINT('Origin',(73.6,68.7,0.));
#652=UNCERTAINTY_MEASURE_WITH_UNIT(LENGTH_MEASURE(0.01),#656,
'DISTANCE_ACCURACY_VALUE',
'Maximum model space distance between geometric entities at asserted c
onnectivities');
#653=UNCERTAINTY_MEASURE_WITH_UNIT(LENGTH_MEASURE(0.01),#656,
'DISTANCE_ACCURACY_VALUE',
'Maximum model space distance between geometric entities at asserted c
onnectivities');
#654=(
GEOMETRIC_REPRESENTATION_CONTEXT(3)
GLOBAL_UNCERTAINTY_ASSIGNED_CONTEXT((#652))
GLOBAL_UNIT_ASSIGNED_CONTEXT((#656,#658,#659))
REPRESENTATION_CONTEXT('','3D')
);
#655=(
GEOMETRIC_REPRESENTATION_CONTEXT(3)
GLOBAL_UNCERTAINTY_ASSIGNED_CONTEXT((#653))
GLOBAL_UNIT_ASSIGNED_CONTEXT((#656,#658,#659))
REPRESENTATION_CONTEXT('','3D')
);
#656=(
LENGTH_UNIT()
NAMED_UNIT(*)
SI_UNIT(.MILLI.,.METRE.)
);
#657=(
LENGTH_UNIT()
NAMED_UNIT(*)
SI_UNIT($,.METRE.)
);
#658=(
NAMED_UNIT(*)
PLANE_ANGLE_UNIT()
SI_UNIT($,.RADIAN.)
);
#659=(
NAMED_UNIT(*)
SI_UNIT($,.STERADIAN.)
SOLID_ANGLE_UNIT()
);
#660=SHAPE_DEFINITION_REPRESENTATION(#661,#662);
#661=PRODUCT_DEFINITION_SHAPE('',$,#664);
#662=SHAPE_REPRESENTATION('',(#414),#654);
#663=PRODUCT_DEFINITION_CONTEXT('part definition',#668,'design');
#664=PRODUCT_DEFINITION('2026-08-22-10-21-43-235','Keypad',#665,#663);
#665=PRODUCT_DEFINITION_FORMATION('',$,#670);
#666=PRODUCT_RELATED_PRODUCT_CATEGORY('Keypad','Keypad',(#670));
#667=APPLICATION_PROTOCOL_DEFINITION('international standard',
'automotive_design',2009,#668);
#668=APPLICATION_CONTEXT(
'Core Data for Automotive Mechanical Design Process');
#669=PRODUCT_CONTEXT('part definition',#668,'mechanical');
#670=PRODUCT('2026-08-22-10-21-43-235','Keypad',$,(#669));
#671=PRESENTATION_STYLE_ASSIGNMENT((#672));
#672=SURFACE_STYLE_USAGE(.BOTH.,#673);
#673=SURFACE_SIDE_STYLE('',(#674));
#674=SURFACE_STYLE_FILL_AREA(#675);
#675=FILL_AREA_STYLE(
'EPX 150 - Air Baked (with Carbon M2 M3 L1 3D Printers)',(#676));
#676=FILL_AREA_STYLE_COLOUR(
'EPX 150 - Air Baked (with Carbon M2 M3 L1 3D Printers)',#677);
#677=COLOUR_RGB(
'EPX 150 - Air Baked (with Carbon M2 M3 L1 3D Printers)',0.247058823529412,
0.247058823529412,0.247058823529412);
ENDSEC;
END-ISO-10303-21;
