ISO-10303-21;
HEADER;
/* Generated by software containing ST-Developer
 * from STEP Tools, Inc. (www.steptools.com) 
 */

FILE_DESCRIPTION(
/* description */ (''),
/* implementation_level */ '2;1');

FILE_NAME(
/* name */ 'Keypadtop.step',
/* time_stamp */ '2026-08-29T11:42:33-07:00',
/* author */ (''),
/* organization */ (''),
/* preprocessor_version */ 'ST-DEVELOPER v20.1',
/* originating_system */ 'Autodesk Translation Framework v15.8.0.0',
/* authorisation */ '');

FILE_SCHEMA (('AUTOMOTIVE_DESIGN { 1 0 10303 214 3 1 1 }'));
ENDSEC;

DATA;
#10=MECHANICAL_DESIGN_GEOMETRIC_PRESENTATION_REPRESENTATION('',(#13),#1975);
#11=SHAPE_REPRESENTATION_RELATIONSHIP('SRR','None',#1982,#12);
#12=ADVANCED_BREP_SHAPE_REPRESENTATION('',(#14),#1974);
#13=STYLED_ITEM('',(#1992),#14);
#14=MANIFOLD_SOLID_BREP('Body2',#1179);
#15=FACE_BOUND('',#216,.T.);
#16=FACE_BOUND('',#217,.T.);
#17=FACE_BOUND('',#218,.T.);
#18=FACE_BOUND('',#219,.T.);
#19=FACE_BOUND('',#220,.T.);
#20=FACE_BOUND('',#221,.T.);
#21=FACE_BOUND('',#222,.T.);
#22=FACE_BOUND('',#224,.T.);
#23=FACE_BOUND('',#225,.T.);
#24=FACE_BOUND('',#226,.T.);
#25=FACE_BOUND('',#227,.T.);
#26=FACE_BOUND('',#228,.T.);
#27=FACE_BOUND('',#229,.T.);
#28=FACE_BOUND('',#230,.T.);
#29=CIRCLE('',#1198,0.5);
#30=CIRCLE('',#1199,0.5);
#31=CIRCLE('',#1202,0.5);
#32=CIRCLE('',#1203,0.5);
#33=CIRCLE('',#1206,0.5);
#34=CIRCLE('',#1207,0.5);
#35=CIRCLE('',#1210,0.5);
#36=CIRCLE('',#1211,0.5);
#37=CIRCLE('',#1214,0.499999999999998);
#38=CIRCLE('',#1215,0.499999999999998);
#39=CIRCLE('',#1218,0.5);
#40=CIRCLE('',#1219,0.5);
#41=CIRCLE('',#1222,0.499999999999998);
#42=CIRCLE('',#1223,0.499999999999998);
#43=CIRCLE('',#1226,0.5);
#44=CIRCLE('',#1227,0.5);
#45=CIRCLE('',#1230,0.499999999999998);
#46=CIRCLE('',#1231,0.499999999999998);
#47=CIRCLE('',#1234,0.499999999999998);
#48=CIRCLE('',#1235,0.499999999999998);
#49=CIRCLE('',#1238,0.499999999999998);
#50=CIRCLE('',#1239,0.499999999999998);
#51=CIRCLE('',#1242,0.499999999999998);
#52=CIRCLE('',#1243,0.499999999999998);
#53=CIRCLE('',#1246,0.499999999999998);
#54=CIRCLE('',#1247,0.499999999999998);
#55=CIRCLE('',#1250,0.499999999999998);
#56=CIRCLE('',#1251,0.499999999999998);
#57=CIRCLE('',#1254,0.499999999999998);
#58=CIRCLE('',#1255,0.499999999999998);
#59=CIRCLE('',#1258,0.499999999999998);
#60=CIRCLE('',#1259,0.499999999999998);
#61=CIRCLE('',#1262,0.499999999999998);
#62=CIRCLE('',#1263,0.499999999999998);
#63=CIRCLE('',#1266,0.499999999999998);
#64=CIRCLE('',#1267,0.499999999999998);
#65=CIRCLE('',#1270,0.499999999999998);
#66=CIRCLE('',#1271,0.499999999999998);
#67=CIRCLE('',#1274,0.499999999999998);
#68=CIRCLE('',#1275,0.499999999999998);
#69=CIRCLE('',#1279,0.5);
#70=CIRCLE('',#1280,0.5);
#71=CIRCLE('',#1283,0.499999999999998);
#72=CIRCLE('',#1284,0.499999999999998);
#73=CIRCLE('',#1287,0.5);
#74=CIRCLE('',#1288,0.5);
#75=CIRCLE('',#1291,0.499999999999998);
#76=CIRCLE('',#1292,0.499999999999998);
#77=CYLINDRICAL_SURFACE('',#1197,0.5);
#78=CYLINDRICAL_SURFACE('',#1201,0.5);
#79=CYLINDRICAL_SURFACE('',#1205,0.5);
#80=CYLINDRICAL_SURFACE('',#1209,0.5);
#81=CYLINDRICAL_SURFACE('',#1213,0.499999999999998);
#82=CYLINDRICAL_SURFACE('',#1217,0.5);
#83=CYLINDRICAL_SURFACE('',#1221,0.499999999999998);
#84=CYLINDRICAL_SURFACE('',#1225,0.5);
#85=CYLINDRICAL_SURFACE('',#1229,0.499999999999998);
#86=CYLINDRICAL_SURFACE('',#1233,0.499999999999998);
#87=CYLINDRICAL_SURFACE('',#1237,0.499999999999998);
#88=CYLINDRICAL_SURFACE('',#1241,0.499999999999998);
#89=CYLINDRICAL_SURFACE('',#1245,0.499999999999998);
#90=CYLINDRICAL_SURFACE('',#1249,0.499999999999998);
#91=CYLINDRICAL_SURFACE('',#1253,0.499999999999998);
#92=CYLINDRICAL_SURFACE('',#1257,0.499999999999998);
#93=CYLINDRICAL_SURFACE('',#1261,0.499999999999998);
#94=CYLINDRICAL_SURFACE('',#1265,0.499999999999998);
#95=CYLINDRICAL_SURFACE('',#1269,0.499999999999998);
#96=CYLINDRICAL_SURFACE('',#1273,0.499999999999998);
#97=CYLINDRICAL_SURFACE('',#1278,0.5);
#98=CYLINDRICAL_SURFACE('',#1282,0.499999999999998);
#99=CYLINDRICAL_SURFACE('',#1286,0.5);
#100=CYLINDRICAL_SURFACE('',#1290,0.499999999999998);
#101=FACE_OUTER_BOUND('',#159,.T.);
#102=FACE_OUTER_BOUND('',#160,.T.);
#103=FACE_OUTER_BOUND('',#161,.T.);
#104=FACE_OUTER_BOUND('',#162,.T.);
#105=FACE_OUTER_BOUND('',#163,.T.);
#106=FACE_OUTER_BOUND('',#164,.T.);
#107=FACE_OUTER_BOUND('',#165,.T.);
#108=FACE_OUTER_BOUND('',#166,.T.);
#109=FACE_OUTER_BOUND('',#167,.T.);
#110=FACE_OUTER_BOUND('',#168,.T.);
#111=FACE_OUTER_BOUND('',#169,.T.);
#112=FACE_OUTER_BOUND('',#170,.T.);
#113=FACE_OUTER_BOUND('',#171,.T.);
#114=FACE_OUTER_BOUND('',#172,.T.);
#115=FACE_OUTER_BOUND('',#173,.T.);
#116=FACE_OUTER_BOUND('',#174,.T.);
#117=FACE_OUTER_BOUND('',#175,.T.);
#118=FACE_OUTER_BOUND('',#176,.T.);
#119=FACE_OUTER_BOUND('',#177,.T.);
#120=FACE_OUTER_BOUND('',#178,.T.);
#121=FACE_OUTER_BOUND('',#179,.T.);
#122=FACE_OUTER_BOUND('',#180,.T.);
#123=FACE_OUTER_BOUND('',#181,.T.);
#124=FACE_OUTER_BOUND('',#182,.T.);
#125=FACE_OUTER_BOUND('',#183,.T.);
#126=FACE_OUTER_BOUND('',#184,.T.);
#127=FACE_OUTER_BOUND('',#185,.T.);
#128=FACE_OUTER_BOUND('',#186,.T.);
#129=FACE_OUTER_BOUND('',#187,.T.);
#130=FACE_OUTER_BOUND('',#188,.T.);
#131=FACE_OUTER_BOUND('',#189,.T.);
#132=FACE_OUTER_BOUND('',#190,.T.);
#133=FACE_OUTER_BOUND('',#191,.T.);
#134=FACE_OUTER_BOUND('',#192,.T.);
#135=FACE_OUTER_BOUND('',#193,.T.);
#136=FACE_OUTER_BOUND('',#194,.T.);
#137=FACE_OUTER_BOUND('',#195,.T.);
#138=FACE_OUTER_BOUND('',#196,.T.);
#139=FACE_OUTER_BOUND('',#197,.T.);
#140=FACE_OUTER_BOUND('',#198,.T.);
#141=FACE_OUTER_BOUND('',#199,.T.);
#142=FACE_OUTER_BOUND('',#200,.T.);
#143=FACE_OUTER_BOUND('',#201,.T.);
#144=FACE_OUTER_BOUND('',#202,.T.);
#145=FACE_OUTER_BOUND('',#203,.T.);
#146=FACE_OUTER_BOUND('',#204,.T.);
#147=FACE_OUTER_BOUND('',#205,.T.);
#148=FACE_OUTER_BOUND('',#206,.T.);
#149=FACE_OUTER_BOUND('',#207,.T.);
#150=FACE_OUTER_BOUND('',#208,.T.);
#151=FACE_OUTER_BOUND('',#209,.T.);
#152=FACE_OUTER_BOUND('',#210,.T.);
#153=FACE_OUTER_BOUND('',#211,.T.);
#154=FACE_OUTER_BOUND('',#212,.T.);
#155=FACE_OUTER_BOUND('',#213,.T.);
#156=FACE_OUTER_BOUND('',#214,.T.);
#157=FACE_OUTER_BOUND('',#215,.T.);
#158=FACE_OUTER_BOUND('',#223,.T.);
#159=EDGE_LOOP('',(#751,#752,#753,#754));
#160=EDGE_LOOP('',(#755,#756,#757,#758));
#161=EDGE_LOOP('',(#759,#760,#761,#762));
#162=EDGE_LOOP('',(#763,#764,#765,#766));
#163=EDGE_LOOP('',(#767,#768,#769,#770));
#164=EDGE_LOOP('',(#771,#772,#773,#774));
#165=EDGE_LOOP('',(#775,#776,#777,#778));
#166=EDGE_LOOP('',(#779,#780,#781,#782));
#167=EDGE_LOOP('',(#783,#784,#785,#786));
#168=EDGE_LOOP('',(#787,#788,#789,#790));
#169=EDGE_LOOP('',(#791,#792,#793,#794));
#170=EDGE_LOOP('',(#795,#796,#797,#798));
#171=EDGE_LOOP('',(#799,#800,#801,#802));
#172=EDGE_LOOP('',(#803,#804,#805,#806));
#173=EDGE_LOOP('',(#807,#808,#809,#810));
#174=EDGE_LOOP('',(#811,#812,#813,#814));
#175=EDGE_LOOP('',(#815,#816,#817,#818));
#176=EDGE_LOOP('',(#819,#820,#821,#822));
#177=EDGE_LOOP('',(#823,#824,#825,#826));
#178=EDGE_LOOP('',(#827,#828,#829,#830));
#179=EDGE_LOOP('',(#831,#832,#833,#834));
#180=EDGE_LOOP('',(#835,#836,#837,#838));
#181=EDGE_LOOP('',(#839,#840,#841,#842));
#182=EDGE_LOOP('',(#843,#844,#845,#846));
#183=EDGE_LOOP('',(#847,#848,#849,#850));
#184=EDGE_LOOP('',(#851,#852,#853,#854));
#185=EDGE_LOOP('',(#855,#856,#857,#858));
#186=EDGE_LOOP('',(#859,#860,#861,#862));
#187=EDGE_LOOP('',(#863,#864,#865,#866));
#188=EDGE_LOOP('',(#867,#868,#869,#870));
#189=EDGE_LOOP('',(#871,#872,#873,#874));
#190=EDGE_LOOP('',(#875,#876,#877,#878));
#191=EDGE_LOOP('',(#879,#880,#881,#882));
#192=EDGE_LOOP('',(#883,#884,#885,#886));
#193=EDGE_LOOP('',(#887,#888,#889,#890));
#194=EDGE_LOOP('',(#891,#892,#893,#894));
#195=EDGE_LOOP('',(#895,#896,#897,#898));
#196=EDGE_LOOP('',(#899,#900,#901,#902));
#197=EDGE_LOOP('',(#903,#904,#905,#906));
#198=EDGE_LOOP('',(#907,#908,#909,#910));
#199=EDGE_LOOP('',(#911,#912,#913,#914));
#200=EDGE_LOOP('',(#915,#916,#917,#918));
#201=EDGE_LOOP('',(#919,#920,#921,#922));
#202=EDGE_LOOP('',(#923,#924,#925,#926));
#203=EDGE_LOOP('',(#927,#928,#929,#930));
#204=EDGE_LOOP('',(#931,#932,#933,#934));
#205=EDGE_LOOP('',(#935,#936,#937,#938));
#206=EDGE_LOOP('',(#939,#940,#941,#942));
#207=EDGE_LOOP('',(#943,#944,#945,#946));
#208=EDGE_LOOP('',(#947,#948,#949,#950));
#209=EDGE_LOOP('',(#951,#952,#953,#954));
#210=EDGE_LOOP('',(#955,#956,#957,#958));
#211=EDGE_LOOP('',(#959,#960,#961,#962));
#212=EDGE_LOOP('',(#963,#964,#965,#966));
#213=EDGE_LOOP('',(#967,#968,#969,#970));
#214=EDGE_LOOP('',(#971,#972,#973,#974));
#215=EDGE_LOOP('',(#975,#976,#977,#978));
#216=EDGE_LOOP('',(#979,#980,#981,#982,#983,#984,#985,#986));
#217=EDGE_LOOP('',(#987,#988,#989,#990,#991,#992,#993,#994));
#218=EDGE_LOOP('',(#995,#996,#997,#998,#999,#1000,#1001,#1002));
#219=EDGE_LOOP('',(#1003,#1004,#1005,#1006,#1007,#1008,#1009,#1010));
#220=EDGE_LOOP('',(#1011,#1012,#1013,#1014,#1015,#1016,#1017,#1018));
#221=EDGE_LOOP('',(#1019,#1020,#1021,#1022,#1023,#1024,#1025,#1026));
#222=EDGE_LOOP('',(#1027,#1028,#1029,#1030));
#223=EDGE_LOOP('',(#1031,#1032,#1033,#1034));
#224=EDGE_LOOP('',(#1035,#1036,#1037,#1038,#1039,#1040,#1041,#1042));
#225=EDGE_LOOP('',(#1043,#1044,#1045,#1046,#1047,#1048,#1049,#1050));
#226=EDGE_LOOP('',(#1051,#1052,#1053,#1054,#1055,#1056,#1057,#1058));
#227=EDGE_LOOP('',(#1059,#1060,#1061,#1062,#1063,#1064,#1065,#1066));
#228=EDGE_LOOP('',(#1067,#1068,#1069,#1070,#1071,#1072,#1073,#1074));
#229=EDGE_LOOP('',(#1075,#1076,#1077,#1078,#1079,#1080,#1081,#1082));
#230=EDGE_LOOP('',(#1083,#1084,#1085,#1086));
#231=LINE('',#1637,#351);
#232=LINE('',#1639,#352);
#233=LINE('',#1641,#353);
#234=LINE('',#1642,#354);
#235=LINE('',#1645,#355);
#236=LINE('',#1647,#356);
#237=LINE('',#1648,#357);
#238=LINE('',#1651,#358);
#239=LINE('',#1653,#359);
#240=LINE('',#1654,#360);
#241=LINE('',#1656,#361);
#242=LINE('',#1657,#362);
#243=LINE('',#1663,#363);
#244=LINE('',#1666,#364);
#245=LINE('',#1669,#365);
#246=LINE('',#1671,#366);
#247=LINE('',#1672,#367);
#248=LINE('',#1678,#368);
#249=LINE('',#1681,#369);
#250=LINE('',#1683,#370);
#251=LINE('',#1684,#371);
#252=LINE('',#1690,#372);
#253=LINE('',#1693,#373);
#254=LINE('',#1695,#374);
#255=LINE('',#1696,#375);
#256=LINE('',#1702,#376);
#257=LINE('',#1704,#377);
#258=LINE('',#1705,#378);
#259=LINE('',#1711,#379);
#260=LINE('',#1714,#380);
#261=LINE('',#1717,#381);
#262=LINE('',#1719,#382);
#263=LINE('',#1720,#383);
#264=LINE('',#1726,#384);
#265=LINE('',#1729,#385);
#266=LINE('',#1731,#386);
#267=LINE('',#1732,#387);
#268=LINE('',#1738,#388);
#269=LINE('',#1741,#389);
#270=LINE('',#1743,#390);
#271=LINE('',#1744,#391);
#272=LINE('',#1750,#392);
#273=LINE('',#1752,#393);
#274=LINE('',#1753,#394);
#275=LINE('',#1759,#395);
#276=LINE('',#1762,#396);
#277=LINE('',#1765,#397);
#278=LINE('',#1767,#398);
#279=LINE('',#1768,#399);
#280=LINE('',#1774,#400);
#281=LINE('',#1777,#401);
#282=LINE('',#1779,#402);
#283=LINE('',#1780,#403);
#284=LINE('',#1786,#404);
#285=LINE('',#1789,#405);
#286=LINE('',#1791,#406);
#287=LINE('',#1792,#407);
#288=LINE('',#1798,#408);
#289=LINE('',#1800,#409);
#290=LINE('',#1801,#410);
#291=LINE('',#1807,#411);
#292=LINE('',#1810,#412);
#293=LINE('',#1813,#413);
#294=LINE('',#1815,#414);
#295=LINE('',#1816,#415);
#296=LINE('',#1822,#416);
#297=LINE('',#1825,#417);
#298=LINE('',#1827,#418);
#299=LINE('',#1828,#419);
#300=LINE('',#1834,#420);
#301=LINE('',#1837,#421);
#302=LINE('',#1839,#422);
#303=LINE('',#1840,#423);
#304=LINE('',#1846,#424);
#305=LINE('',#1848,#425);
#306=LINE('',#1849,#426);
#307=LINE('',#1855,#427);
#308=LINE('',#1858,#428);
#309=LINE('',#1861,#429);
#310=LINE('',#1863,#430);
#311=LINE('',#1864,#431);
#312=LINE('',#1870,#432);
#313=LINE('',#1873,#433);
#314=LINE('',#1875,#434);
#315=LINE('',#1876,#435);
#316=LINE('',#1882,#436);
#317=LINE('',#1885,#437);
#318=LINE('',#1887,#438);
#319=LINE('',#1888,#439);
#320=LINE('',#1894,#440);
#321=LINE('',#1896,#441);
#322=LINE('',#1897,#442);
#323=LINE('',#1901,#443);
#324=LINE('',#1903,#444);
#325=LINE('',#1905,#445);
#326=LINE('',#1906,#446);
#327=LINE('',#1912,#447);
#328=LINE('',#1915,#448);
#329=LINE('',#1917,#449);
#330=LINE('',#1918,#450);
#331=LINE('',#1924,#451);
#332=LINE('',#1927,#452);
#333=LINE('',#1929,#453);
#334=LINE('',#1930,#454);
#335=LINE('',#1936,#455);
#336=LINE('',#1939,#456);
#337=LINE('',#1941,#457);
#338=LINE('',#1942,#458);
#339=LINE('',#1949,#459);
#340=LINE('',#1951,#460);
#341=LINE('',#1953,#461);
#342=LINE('',#1954,#462);
#343=LINE('',#1957,#463);
#344=LINE('',#1959,#464);
#345=LINE('',#1960,#465);
#346=LINE('',#1963,#466);
#347=LINE('',#1965,#467);
#348=LINE('',#1966,#468);
#349=LINE('',#1968,#469);
#350=LINE('',#1969,#470);
#351=VECTOR('',#1303,10.);
#352=VECTOR('',#1304,10.);
#353=VECTOR('',#1305,10.);
#354=VECTOR('',#1306,10.);
#355=VECTOR('',#1309,10.);
#356=VECTOR('',#1310,10.);
#357=VECTOR('',#1311,10.);
#358=VECTOR('',#1314,10.);
#359=VECTOR('',#1315,10.);
#360=VECTOR('',#1316,10.);
#361=VECTOR('',#1319,10.);
#362=VECTOR('',#1320,10.);
#363=VECTOR('',#1325,10.);
#364=VECTOR('',#1328,10.);
#365=VECTOR('',#1331,10.);
#366=VECTOR('',#1332,10.);
#367=VECTOR('',#1333,10.);
#368=VECTOR('',#1340,10.);
#369=VECTOR('',#1343,10.);
#370=VECTOR('',#1344,10.);
#371=VECTOR('',#1345,10.);
#372=VECTOR('',#1352,10.);
#373=VECTOR('',#1355,10.);
#374=VECTOR('',#1356,10.);
#375=VECTOR('',#1357,10.);
#376=VECTOR('',#1364,10.);
#377=VECTOR('',#1367,10.);
#378=VECTOR('',#1368,10.);
#379=VECTOR('',#1373,10.);
#380=VECTOR('',#1376,10.);
#381=VECTOR('',#1379,10.);
#382=VECTOR('',#1380,10.);
#383=VECTOR('',#1381,10.);
#384=VECTOR('',#1388,10.);
#385=VECTOR('',#1391,10.);
#386=VECTOR('',#1392,10.);
#387=VECTOR('',#1393,10.);
#388=VECTOR('',#1400,10.);
#389=VECTOR('',#1403,10.);
#390=VECTOR('',#1404,10.);
#391=VECTOR('',#1405,10.);
#392=VECTOR('',#1412,10.);
#393=VECTOR('',#1415,10.);
#394=VECTOR('',#1416,10.);
#395=VECTOR('',#1421,10.);
#396=VECTOR('',#1424,10.);
#397=VECTOR('',#1427,10.);
#398=VECTOR('',#1428,10.);
#399=VECTOR('',#1429,10.);
#400=VECTOR('',#1436,10.);
#401=VECTOR('',#1439,10.);
#402=VECTOR('',#1440,10.);
#403=VECTOR('',#1441,10.);
#404=VECTOR('',#1448,10.);
#405=VECTOR('',#1451,10.);
#406=VECTOR('',#1452,10.);
#407=VECTOR('',#1453,10.);
#408=VECTOR('',#1460,10.);
#409=VECTOR('',#1463,10.);
#410=VECTOR('',#1464,10.);
#411=VECTOR('',#1469,10.);
#412=VECTOR('',#1472,10.);
#413=VECTOR('',#1475,10.);
#414=VECTOR('',#1476,10.);
#415=VECTOR('',#1477,10.);
#416=VECTOR('',#1484,10.);
#417=VECTOR('',#1487,10.);
#418=VECTOR('',#1488,10.);
#419=VECTOR('',#1489,10.);
#420=VECTOR('',#1496,10.);
#421=VECTOR('',#1499,10.);
#422=VECTOR('',#1500,10.);
#423=VECTOR('',#1501,10.);
#424=VECTOR('',#1508,10.);
#425=VECTOR('',#1511,10.);
#426=VECTOR('',#1512,10.);
#427=VECTOR('',#1517,10.);
#428=VECTOR('',#1520,10.);
#429=VECTOR('',#1523,10.);
#430=VECTOR('',#1524,10.);
#431=VECTOR('',#1525,10.);
#432=VECTOR('',#1532,10.);
#433=VECTOR('',#1535,10.);
#434=VECTOR('',#1536,10.);
#435=VECTOR('',#1537,10.);
#436=VECTOR('',#1544,10.);
#437=VECTOR('',#1547,10.);
#438=VECTOR('',#1548,10.);
#439=VECTOR('',#1549,10.);
#440=VECTOR('',#1556,10.);
#441=VECTOR('',#1559,10.);
#442=VECTOR('',#1560,10.);
#443=VECTOR('',#1563,10.);
#444=VECTOR('',#1564,10.);
#445=VECTOR('',#1565,10.);
#446=VECTOR('',#1566,10.);
#447=VECTOR('',#1573,10.);
#448=VECTOR('',#1576,10.);
#449=VECTOR('',#1577,10.);
#450=VECTOR('',#1578,10.);
#451=VECTOR('',#1585,10.);
#452=VECTOR('',#1588,10.);
#453=VECTOR('',#1589,10.);
#454=VECTOR('',#1590,10.);
#455=VECTOR('',#1597,10.);
#456=VECTOR('',#1600,10.);
#457=VECTOR('',#1601,10.);
#458=VECTOR('',#1602,10.);
#459=VECTOR('',#1611,10.);
#460=VECTOR('',#1612,10.);
#461=VECTOR('',#1613,10.);
#462=VECTOR('',#1614,10.);
#463=VECTOR('',#1617,10.);
#464=VECTOR('',#1618,10.);
#465=VECTOR('',#1619,10.);
#466=VECTOR('',#1622,10.);
#467=VECTOR('',#1623,10.);
#468=VECTOR('',#1624,10.);
#469=VECTOR('',#1627,10.);
#470=VECTOR('',#1628,10.);
#471=VERTEX_POINT('',#1635);
#472=VERTEX_POINT('',#1636);
#473=VERTEX_POINT('',#1638);
#474=VERTEX_POINT('',#1640);
#475=VERTEX_POINT('',#1644);
#476=VERTEX_POINT('',#1646);
#477=VERTEX_POINT('',#1650);
#478=VERTEX_POINT('',#1652);
#479=VERTEX_POINT('',#1659);
#480=VERTEX_POINT('',#1660);
#481=VERTEX_POINT('',#1662);
#482=VERTEX_POINT('',#1664);
#483=VERTEX_POINT('',#1668);
#484=VERTEX_POINT('',#1670);
#485=VERTEX_POINT('',#1674);
#486=VERTEX_POINT('',#1676);
#487=VERTEX_POINT('',#1680);
#488=VERTEX_POINT('',#1682);
#489=VERTEX_POINT('',#1686);
#490=VERTEX_POINT('',#1688);
#491=VERTEX_POINT('',#1692);
#492=VERTEX_POINT('',#1694);
#493=VERTEX_POINT('',#1698);
#494=VERTEX_POINT('',#1700);
#495=VERTEX_POINT('',#1707);
#496=VERTEX_POINT('',#1708);
#497=VERTEX_POINT('',#1710);
#498=VERTEX_POINT('',#1712);
#499=VERTEX_POINT('',#1716);
#500=VERTEX_POINT('',#1718);
#501=VERTEX_POINT('',#1722);
#502=VERTEX_POINT('',#1724);
#503=VERTEX_POINT('',#1728);
#504=VERTEX_POINT('',#1730);
#505=VERTEX_POINT('',#1734);
#506=VERTEX_POINT('',#1736);
#507=VERTEX_POINT('',#1740);
#508=VERTEX_POINT('',#1742);
#509=VERTEX_POINT('',#1746);
#510=VERTEX_POINT('',#1748);
#511=VERTEX_POINT('',#1755);
#512=VERTEX_POINT('',#1756);
#513=VERTEX_POINT('',#1758);
#514=VERTEX_POINT('',#1760);
#515=VERTEX_POINT('',#1764);
#516=VERTEX_POINT('',#1766);
#517=VERTEX_POINT('',#1770);
#518=VERTEX_POINT('',#1772);
#519=VERTEX_POINT('',#1776);
#520=VERTEX_POINT('',#1778);
#521=VERTEX_POINT('',#1782);
#522=VERTEX_POINT('',#1784);
#523=VERTEX_POINT('',#1788);
#524=VERTEX_POINT('',#1790);
#525=VERTEX_POINT('',#1794);
#526=VERTEX_POINT('',#1796);
#527=VERTEX_POINT('',#1803);
#528=VERTEX_POINT('',#1804);
#529=VERTEX_POINT('',#1806);
#530=VERTEX_POINT('',#1808);
#531=VERTEX_POINT('',#1812);
#532=VERTEX_POINT('',#1814);
#533=VERTEX_POINT('',#1818);
#534=VERTEX_POINT('',#1820);
#535=VERTEX_POINT('',#1824);
#536=VERTEX_POINT('',#1826);
#537=VERTEX_POINT('',#1830);
#538=VERTEX_POINT('',#1832);
#539=VERTEX_POINT('',#1836);
#540=VERTEX_POINT('',#1838);
#541=VERTEX_POINT('',#1842);
#542=VERTEX_POINT('',#1844);
#543=VERTEX_POINT('',#1851);
#544=VERTEX_POINT('',#1852);
#545=VERTEX_POINT('',#1854);
#546=VERTEX_POINT('',#1856);
#547=VERTEX_POINT('',#1860);
#548=VERTEX_POINT('',#1862);
#549=VERTEX_POINT('',#1866);
#550=VERTEX_POINT('',#1868);
#551=VERTEX_POINT('',#1872);
#552=VERTEX_POINT('',#1874);
#553=VERTEX_POINT('',#1878);
#554=VERTEX_POINT('',#1880);
#555=VERTEX_POINT('',#1884);
#556=VERTEX_POINT('',#1886);
#557=VERTEX_POINT('',#1890);
#558=VERTEX_POINT('',#1892);
#559=VERTEX_POINT('',#1899);
#560=VERTEX_POINT('',#1900);
#561=VERTEX_POINT('',#1902);
#562=VERTEX_POINT('',#1904);
#563=VERTEX_POINT('',#1908);
#564=VERTEX_POINT('',#1910);
#565=VERTEX_POINT('',#1914);
#566=VERTEX_POINT('',#1916);
#567=VERTEX_POINT('',#1920);
#568=VERTEX_POINT('',#1922);
#569=VERTEX_POINT('',#1926);
#570=VERTEX_POINT('',#1928);
#571=VERTEX_POINT('',#1932);
#572=VERTEX_POINT('',#1934);
#573=VERTEX_POINT('',#1938);
#574=VERTEX_POINT('',#1940);
#575=VERTEX_POINT('',#1947);
#576=VERTEX_POINT('',#1948);
#577=VERTEX_POINT('',#1950);
#578=VERTEX_POINT('',#1952);
#579=VERTEX_POINT('',#1956);
#580=VERTEX_POINT('',#1958);
#581=VERTEX_POINT('',#1962);
#582=VERTEX_POINT('',#1964);
#583=EDGE_CURVE('',#471,#472,#231,.T.);
#584=EDGE_CURVE('',#471,#473,#232,.T.);
#585=EDGE_CURVE('',#474,#473,#233,.T.);
#586=EDGE_CURVE('',#472,#474,#234,.T.);
#587=EDGE_CURVE('',#472,#475,#235,.T.);
#588=EDGE_CURVE('',#476,#474,#236,.T.);
#589=EDGE_CURVE('',#475,#476,#237,.T.);
#590=EDGE_CURVE('',#475,#477,#238,.T.);
#591=EDGE_CURVE('',#478,#476,#239,.T.);
#592=EDGE_CURVE('',#477,#478,#240,.T.);
#593=EDGE_CURVE('',#477,#471,#241,.T.);
#594=EDGE_CURVE('',#473,#478,#242,.T.);
#595=EDGE_CURVE('',#479,#480,#29,.T.);
#596=EDGE_CURVE('',#479,#481,#243,.T.);
#597=EDGE_CURVE('',#482,#481,#30,.T.);
#598=EDGE_CURVE('',#480,#482,#244,.T.);
#599=EDGE_CURVE('',#480,#483,#245,.T.);
#600=EDGE_CURVE('',#484,#482,#246,.T.);
#601=EDGE_CURVE('',#483,#484,#247,.T.);
#602=EDGE_CURVE('',#483,#485,#31,.T.);
#603=EDGE_CURVE('',#486,#484,#32,.T.);
#604=EDGE_CURVE('',#485,#486,#248,.T.);
#605=EDGE_CURVE('',#485,#487,#249,.T.);
#606=EDGE_CURVE('',#488,#486,#250,.T.);
#607=EDGE_CURVE('',#487,#488,#251,.T.);
#608=EDGE_CURVE('',#487,#489,#33,.T.);
#609=EDGE_CURVE('',#490,#488,#34,.T.);
#610=EDGE_CURVE('',#489,#490,#252,.T.);
#611=EDGE_CURVE('',#491,#489,#253,.T.);
#612=EDGE_CURVE('',#492,#490,#254,.T.);
#613=EDGE_CURVE('',#491,#492,#255,.T.);
#614=EDGE_CURVE('',#491,#493,#35,.T.);
#615=EDGE_CURVE('',#494,#492,#36,.T.);
#616=EDGE_CURVE('',#493,#494,#256,.T.);
#617=EDGE_CURVE('',#479,#493,#257,.T.);
#618=EDGE_CURVE('',#481,#494,#258,.T.);
#619=EDGE_CURVE('',#495,#496,#37,.T.);
#620=EDGE_CURVE('',#495,#497,#259,.T.);
#621=EDGE_CURVE('',#498,#497,#38,.T.);
#622=EDGE_CURVE('',#496,#498,#260,.T.);
#623=EDGE_CURVE('',#496,#499,#261,.T.);
#624=EDGE_CURVE('',#500,#498,#262,.T.);
#625=EDGE_CURVE('',#499,#500,#263,.T.);
#626=EDGE_CURVE('',#499,#501,#39,.T.);
#627=EDGE_CURVE('',#502,#500,#40,.T.);
#628=EDGE_CURVE('',#501,#502,#264,.T.);
#629=EDGE_CURVE('',#501,#503,#265,.T.);
#630=EDGE_CURVE('',#504,#502,#266,.T.);
#631=EDGE_CURVE('',#503,#504,#267,.T.);
#632=EDGE_CURVE('',#503,#505,#41,.T.);
#633=EDGE_CURVE('',#506,#504,#42,.T.);
#634=EDGE_CURVE('',#505,#506,#268,.T.);
#635=EDGE_CURVE('',#507,#505,#269,.T.);
#636=EDGE_CURVE('',#508,#506,#270,.T.);
#637=EDGE_CURVE('',#507,#508,#271,.T.);
#638=EDGE_CURVE('',#507,#509,#43,.T.);
#639=EDGE_CURVE('',#510,#508,#44,.T.);
#640=EDGE_CURVE('',#509,#510,#272,.T.);
#641=EDGE_CURVE('',#495,#509,#273,.T.);
#642=EDGE_CURVE('',#497,#510,#274,.T.);
#643=EDGE_CURVE('',#511,#512,#45,.T.);
#644=EDGE_CURVE('',#511,#513,#275,.T.);
#645=EDGE_CURVE('',#514,#513,#46,.T.);
#646=EDGE_CURVE('',#512,#514,#276,.T.);
#647=EDGE_CURVE('',#512,#515,#277,.T.);
#648=EDGE_CURVE('',#516,#514,#278,.T.);
#649=EDGE_CURVE('',#515,#516,#279,.T.);
#650=EDGE_CURVE('',#515,#517,#47,.T.);
#651=EDGE_CURVE('',#518,#516,#48,.T.);
#652=EDGE_CURVE('',#517,#518,#280,.T.);
#653=EDGE_CURVE('',#517,#519,#281,.T.);
#654=EDGE_CURVE('',#520,#518,#282,.T.);
#655=EDGE_CURVE('',#519,#520,#283,.T.);
#656=EDGE_CURVE('',#519,#521,#49,.T.);
#657=EDGE_CURVE('',#522,#520,#50,.T.);
#658=EDGE_CURVE('',#521,#522,#284,.T.);
#659=EDGE_CURVE('',#523,#521,#285,.T.);
#660=EDGE_CURVE('',#524,#522,#286,.T.);
#661=EDGE_CURVE('',#523,#524,#287,.T.);
#662=EDGE_CURVE('',#523,#525,#51,.T.);
#663=EDGE_CURVE('',#526,#524,#52,.T.);
#664=EDGE_CURVE('',#525,#526,#288,.T.);
#665=EDGE_CURVE('',#511,#525,#289,.T.);
#666=EDGE_CURVE('',#513,#526,#290,.T.);
#667=EDGE_CURVE('',#527,#528,#53,.T.);
#668=EDGE_CURVE('',#527,#529,#291,.T.);
#669=EDGE_CURVE('',#530,#529,#54,.T.);
#670=EDGE_CURVE('',#528,#530,#292,.T.);
#671=EDGE_CURVE('',#528,#531,#293,.T.);
#672=EDGE_CURVE('',#532,#530,#294,.T.);
#673=EDGE_CURVE('',#531,#532,#295,.T.);
#674=EDGE_CURVE('',#531,#533,#55,.T.);
#675=EDGE_CURVE('',#534,#532,#56,.T.);
#676=EDGE_CURVE('',#533,#534,#296,.T.);
#677=EDGE_CURVE('',#533,#535,#297,.T.);
#678=EDGE_CURVE('',#536,#534,#298,.T.);
#679=EDGE_CURVE('',#535,#536,#299,.T.);
#680=EDGE_CURVE('',#535,#537,#57,.T.);
#681=EDGE_CURVE('',#538,#536,#58,.T.);
#682=EDGE_CURVE('',#537,#538,#300,.T.);
#683=EDGE_CURVE('',#539,#537,#301,.T.);
#684=EDGE_CURVE('',#540,#538,#302,.T.);
#685=EDGE_CURVE('',#539,#540,#303,.T.);
#686=EDGE_CURVE('',#539,#541,#59,.T.);
#687=EDGE_CURVE('',#542,#540,#60,.T.);
#688=EDGE_CURVE('',#541,#542,#304,.T.);
#689=EDGE_CURVE('',#527,#541,#305,.T.);
#690=EDGE_CURVE('',#529,#542,#306,.T.);
#691=EDGE_CURVE('',#543,#544,#61,.T.);
#692=EDGE_CURVE('',#543,#545,#307,.T.);
#693=EDGE_CURVE('',#546,#545,#62,.T.);
#694=EDGE_CURVE('',#544,#546,#308,.T.);
#695=EDGE_CURVE('',#544,#547,#309,.T.);
#696=EDGE_CURVE('',#548,#546,#310,.T.);
#697=EDGE_CURVE('',#547,#548,#311,.T.);
#698=EDGE_CURVE('',#547,#549,#63,.T.);
#699=EDGE_CURVE('',#550,#548,#64,.T.);
#700=EDGE_CURVE('',#549,#550,#312,.T.);
#701=EDGE_CURVE('',#549,#551,#313,.T.);
#702=EDGE_CURVE('',#552,#550,#314,.T.);
#703=EDGE_CURVE('',#551,#552,#315,.T.);
#704=EDGE_CURVE('',#551,#553,#65,.T.);
#705=EDGE_CURVE('',#554,#552,#66,.T.);
#706=EDGE_CURVE('',#553,#554,#316,.T.);
#707=EDGE_CURVE('',#555,#553,#317,.T.);
#708=EDGE_CURVE('',#556,#554,#318,.T.);
#709=EDGE_CURVE('',#555,#556,#319,.T.);
#710=EDGE_CURVE('',#555,#557,#67,.T.);
#711=EDGE_CURVE('',#558,#556,#68,.T.);
#712=EDGE_CURVE('',#557,#558,#320,.T.);
#713=EDGE_CURVE('',#543,#557,#321,.T.);
#714=EDGE_CURVE('',#545,#558,#322,.T.);
#715=EDGE_CURVE('',#559,#560,#323,.T.);
#716=EDGE_CURVE('',#559,#561,#324,.T.);
#717=EDGE_CURVE('',#562,#561,#325,.T.);
#718=EDGE_CURVE('',#560,#562,#326,.T.);
#719=EDGE_CURVE('',#560,#563,#69,.T.);
#720=EDGE_CURVE('',#564,#562,#70,.T.);
#721=EDGE_CURVE('',#563,#564,#327,.T.);
#722=EDGE_CURVE('',#563,#565,#328,.T.);
#723=EDGE_CURVE('',#566,#564,#329,.T.);
#724=EDGE_CURVE('',#565,#566,#330,.T.);
#725=EDGE_CURVE('',#565,#567,#71,.T.);
#726=EDGE_CURVE('',#568,#566,#72,.T.);
#727=EDGE_CURVE('',#567,#568,#331,.T.);
#728=EDGE_CURVE('',#569,#567,#332,.T.);
#729=EDGE_CURVE('',#570,#568,#333,.T.);
#730=EDGE_CURVE('',#569,#570,#334,.T.);
#731=EDGE_CURVE('',#569,#571,#73,.T.);
#732=EDGE_CURVE('',#572,#570,#74,.T.);
#733=EDGE_CURVE('',#571,#572,#335,.T.);
#734=EDGE_CURVE('',#573,#571,#336,.T.);
#735=EDGE_CURVE('',#574,#572,#337,.T.);
#736=EDGE_CURVE('',#573,#574,#338,.T.);
#737=EDGE_CURVE('',#573,#559,#75,.T.);
#738=EDGE_CURVE('',#561,#574,#76,.T.);
#739=EDGE_CURVE('',#575,#576,#339,.T.);
#740=EDGE_CURVE('',#575,#577,#340,.T.);
#741=EDGE_CURVE('',#578,#577,#341,.T.);
#742=EDGE_CURVE('',#576,#578,#342,.T.);
#743=EDGE_CURVE('',#576,#579,#343,.T.);
#744=EDGE_CURVE('',#580,#578,#344,.T.);
#745=EDGE_CURVE('',#579,#580,#345,.T.);
#746=EDGE_CURVE('',#581,#579,#346,.T.);
#747=EDGE_CURVE('',#582,#580,#347,.T.);
#748=EDGE_CURVE('',#581,#582,#348,.T.);
#749=EDGE_CURVE('',#575,#581,#349,.T.);
#750=EDGE_CURVE('',#577,#582,#350,.T.);
#751=ORIENTED_EDGE('',*,*,#583,.F.);
#752=ORIENTED_EDGE('',*,*,#584,.T.);
#753=ORIENTED_EDGE('',*,*,#585,.F.);
#754=ORIENTED_EDGE('',*,*,#586,.F.);
#755=ORIENTED_EDGE('',*,*,#587,.F.);
#756=ORIENTED_EDGE('',*,*,#586,.T.);
#757=ORIENTED_EDGE('',*,*,#588,.F.);
#758=ORIENTED_EDGE('',*,*,#589,.F.);
#759=ORIENTED_EDGE('',*,*,#590,.F.);
#760=ORIENTED_EDGE('',*,*,#589,.T.);
#761=ORIENTED_EDGE('',*,*,#591,.F.);
#762=ORIENTED_EDGE('',*,*,#592,.F.);
#763=ORIENTED_EDGE('',*,*,#593,.F.);
#764=ORIENTED_EDGE('',*,*,#592,.T.);
#765=ORIENTED_EDGE('',*,*,#594,.F.);
#766=ORIENTED_EDGE('',*,*,#584,.F.);
#767=ORIENTED_EDGE('',*,*,#595,.F.);
#768=ORIENTED_EDGE('',*,*,#596,.T.);
#769=ORIENTED_EDGE('',*,*,#597,.F.);
#770=ORIENTED_EDGE('',*,*,#598,.F.);
#771=ORIENTED_EDGE('',*,*,#599,.F.);
#772=ORIENTED_EDGE('',*,*,#598,.T.);
#773=ORIENTED_EDGE('',*,*,#600,.F.);
#774=ORIENTED_EDGE('',*,*,#601,.F.);
#775=ORIENTED_EDGE('',*,*,#602,.F.);
#776=ORIENTED_EDGE('',*,*,#601,.T.);
#777=ORIENTED_EDGE('',*,*,#603,.F.);
#778=ORIENTED_EDGE('',*,*,#604,.F.);
#779=ORIENTED_EDGE('',*,*,#605,.F.);
#780=ORIENTED_EDGE('',*,*,#604,.T.);
#781=ORIENTED_EDGE('',*,*,#606,.F.);
#782=ORIENTED_EDGE('',*,*,#607,.F.);
#783=ORIENTED_EDGE('',*,*,#608,.F.);
#784=ORIENTED_EDGE('',*,*,#607,.T.);
#785=ORIENTED_EDGE('',*,*,#609,.F.);
#786=ORIENTED_EDGE('',*,*,#610,.F.);
#787=ORIENTED_EDGE('',*,*,#611,.T.);
#788=ORIENTED_EDGE('',*,*,#610,.T.);
#789=ORIENTED_EDGE('',*,*,#612,.F.);
#790=ORIENTED_EDGE('',*,*,#613,.F.);
#791=ORIENTED_EDGE('',*,*,#614,.F.);
#792=ORIENTED_EDGE('',*,*,#613,.T.);
#793=ORIENTED_EDGE('',*,*,#615,.F.);
#794=ORIENTED_EDGE('',*,*,#616,.F.);
#795=ORIENTED_EDGE('',*,*,#617,.T.);
#796=ORIENTED_EDGE('',*,*,#616,.T.);
#797=ORIENTED_EDGE('',*,*,#618,.F.);
#798=ORIENTED_EDGE('',*,*,#596,.F.);
#799=ORIENTED_EDGE('',*,*,#619,.F.);
#800=ORIENTED_EDGE('',*,*,#620,.T.);
#801=ORIENTED_EDGE('',*,*,#621,.F.);
#802=ORIENTED_EDGE('',*,*,#622,.F.);
#803=ORIENTED_EDGE('',*,*,#623,.F.);
#804=ORIENTED_EDGE('',*,*,#622,.T.);
#805=ORIENTED_EDGE('',*,*,#624,.F.);
#806=ORIENTED_EDGE('',*,*,#625,.F.);
#807=ORIENTED_EDGE('',*,*,#626,.F.);
#808=ORIENTED_EDGE('',*,*,#625,.T.);
#809=ORIENTED_EDGE('',*,*,#627,.F.);
#810=ORIENTED_EDGE('',*,*,#628,.F.);
#811=ORIENTED_EDGE('',*,*,#629,.F.);
#812=ORIENTED_EDGE('',*,*,#628,.T.);
#813=ORIENTED_EDGE('',*,*,#630,.F.);
#814=ORIENTED_EDGE('',*,*,#631,.F.);
#815=ORIENTED_EDGE('',*,*,#632,.F.);
#816=ORIENTED_EDGE('',*,*,#631,.T.);
#817=ORIENTED_EDGE('',*,*,#633,.F.);
#818=ORIENTED_EDGE('',*,*,#634,.F.);
#819=ORIENTED_EDGE('',*,*,#635,.T.);
#820=ORIENTED_EDGE('',*,*,#634,.T.);
#821=ORIENTED_EDGE('',*,*,#636,.F.);
#822=ORIENTED_EDGE('',*,*,#637,.F.);
#823=ORIENTED_EDGE('',*,*,#638,.F.);
#824=ORIENTED_EDGE('',*,*,#637,.T.);
#825=ORIENTED_EDGE('',*,*,#639,.F.);
#826=ORIENTED_EDGE('',*,*,#640,.F.);
#827=ORIENTED_EDGE('',*,*,#641,.T.);
#828=ORIENTED_EDGE('',*,*,#640,.T.);
#829=ORIENTED_EDGE('',*,*,#642,.F.);
#830=ORIENTED_EDGE('',*,*,#620,.F.);
#831=ORIENTED_EDGE('',*,*,#643,.F.);
#832=ORIENTED_EDGE('',*,*,#644,.T.);
#833=ORIENTED_EDGE('',*,*,#645,.F.);
#834=ORIENTED_EDGE('',*,*,#646,.F.);
#835=ORIENTED_EDGE('',*,*,#647,.F.);
#836=ORIENTED_EDGE('',*,*,#646,.T.);
#837=ORIENTED_EDGE('',*,*,#648,.F.);
#838=ORIENTED_EDGE('',*,*,#649,.F.);
#839=ORIENTED_EDGE('',*,*,#650,.F.);
#840=ORIENTED_EDGE('',*,*,#649,.T.);
#841=ORIENTED_EDGE('',*,*,#651,.F.);
#842=ORIENTED_EDGE('',*,*,#652,.F.);
#843=ORIENTED_EDGE('',*,*,#653,.F.);
#844=ORIENTED_EDGE('',*,*,#652,.T.);
#845=ORIENTED_EDGE('',*,*,#654,.F.);
#846=ORIENTED_EDGE('',*,*,#655,.F.);
#847=ORIENTED_EDGE('',*,*,#656,.F.);
#848=ORIENTED_EDGE('',*,*,#655,.T.);
#849=ORIENTED_EDGE('',*,*,#657,.F.);
#850=ORIENTED_EDGE('',*,*,#658,.F.);
#851=ORIENTED_EDGE('',*,*,#659,.T.);
#852=ORIENTED_EDGE('',*,*,#658,.T.);
#853=ORIENTED_EDGE('',*,*,#660,.F.);
#854=ORIENTED_EDGE('',*,*,#661,.F.);
#855=ORIENTED_EDGE('',*,*,#662,.F.);
#856=ORIENTED_EDGE('',*,*,#661,.T.);
#857=ORIENTED_EDGE('',*,*,#663,.F.);
#858=ORIENTED_EDGE('',*,*,#664,.F.);
#859=ORIENTED_EDGE('',*,*,#665,.T.);
#860=ORIENTED_EDGE('',*,*,#664,.T.);
#861=ORIENTED_EDGE('',*,*,#666,.F.);
#862=ORIENTED_EDGE('',*,*,#644,.F.);
#863=ORIENTED_EDGE('',*,*,#667,.F.);
#864=ORIENTED_EDGE('',*,*,#668,.T.);
#865=ORIENTED_EDGE('',*,*,#669,.F.);
#866=ORIENTED_EDGE('',*,*,#670,.F.);
#867=ORIENTED_EDGE('',*,*,#671,.F.);
#868=ORIENTED_EDGE('',*,*,#670,.T.);
#869=ORIENTED_EDGE('',*,*,#672,.F.);
#870=ORIENTED_EDGE('',*,*,#673,.F.);
#871=ORIENTED_EDGE('',*,*,#674,.F.);
#872=ORIENTED_EDGE('',*,*,#673,.T.);
#873=ORIENTED_EDGE('',*,*,#675,.F.);
#874=ORIENTED_EDGE('',*,*,#676,.F.);
#875=ORIENTED_EDGE('',*,*,#677,.F.);
#876=ORIENTED_EDGE('',*,*,#676,.T.);
#877=ORIENTED_EDGE('',*,*,#678,.F.);
#878=ORIENTED_EDGE('',*,*,#679,.F.);
#879=ORIENTED_EDGE('',*,*,#680,.F.);
#880=ORIENTED_EDGE('',*,*,#679,.T.);
#881=ORIENTED_EDGE('',*,*,#681,.F.);
#882=ORIENTED_EDGE('',*,*,#682,.F.);
#883=ORIENTED_EDGE('',*,*,#683,.T.);
#884=ORIENTED_EDGE('',*,*,#682,.T.);
#885=ORIENTED_EDGE('',*,*,#684,.F.);
#886=ORIENTED_EDGE('',*,*,#685,.F.);
#887=ORIENTED_EDGE('',*,*,#686,.F.);
#888=ORIENTED_EDGE('',*,*,#685,.T.);
#889=ORIENTED_EDGE('',*,*,#687,.F.);
#890=ORIENTED_EDGE('',*,*,#688,.F.);
#891=ORIENTED_EDGE('',*,*,#689,.T.);
#892=ORIENTED_EDGE('',*,*,#688,.T.);
#893=ORIENTED_EDGE('',*,*,#690,.F.);
#894=ORIENTED_EDGE('',*,*,#668,.F.);
#895=ORIENTED_EDGE('',*,*,#691,.F.);
#896=ORIENTED_EDGE('',*,*,#692,.T.);
#897=ORIENTED_EDGE('',*,*,#693,.F.);
#898=ORIENTED_EDGE('',*,*,#694,.F.);
#899=ORIENTED_EDGE('',*,*,#695,.F.);
#900=ORIENTED_EDGE('',*,*,#694,.T.);
#901=ORIENTED_EDGE('',*,*,#696,.F.);
#902=ORIENTED_EDGE('',*,*,#697,.F.);
#903=ORIENTED_EDGE('',*,*,#698,.F.);
#904=ORIENTED_EDGE('',*,*,#697,.T.);
#905=ORIENTED_EDGE('',*,*,#699,.F.);
#906=ORIENTED_EDGE('',*,*,#700,.F.);
#907=ORIENTED_EDGE('',*,*,#701,.F.);
#908=ORIENTED_EDGE('',*,*,#700,.T.);
#909=ORIENTED_EDGE('',*,*,#702,.F.);
#910=ORIENTED_EDGE('',*,*,#703,.F.);
#911=ORIENTED_EDGE('',*,*,#704,.F.);
#912=ORIENTED_EDGE('',*,*,#703,.T.);
#913=ORIENTED_EDGE('',*,*,#705,.F.);
#914=ORIENTED_EDGE('',*,*,#706,.F.);
#915=ORIENTED_EDGE('',*,*,#707,.T.);
#916=ORIENTED_EDGE('',*,*,#706,.T.);
#917=ORIENTED_EDGE('',*,*,#708,.F.);
#918=ORIENTED_EDGE('',*,*,#709,.F.);
#919=ORIENTED_EDGE('',*,*,#710,.F.);
#920=ORIENTED_EDGE('',*,*,#709,.T.);
#921=ORIENTED_EDGE('',*,*,#711,.F.);
#922=ORIENTED_EDGE('',*,*,#712,.F.);
#923=ORIENTED_EDGE('',*,*,#713,.T.);
#924=ORIENTED_EDGE('',*,*,#712,.T.);
#925=ORIENTED_EDGE('',*,*,#714,.F.);
#926=ORIENTED_EDGE('',*,*,#692,.F.);
#927=ORIENTED_EDGE('',*,*,#715,.F.);
#928=ORIENTED_EDGE('',*,*,#716,.T.);
#929=ORIENTED_EDGE('',*,*,#717,.F.);
#930=ORIENTED_EDGE('',*,*,#718,.F.);
#931=ORIENTED_EDGE('',*,*,#719,.F.);
#932=ORIENTED_EDGE('',*,*,#718,.T.);
#933=ORIENTED_EDGE('',*,*,#720,.F.);
#934=ORIENTED_EDGE('',*,*,#721,.F.);
#935=ORIENTED_EDGE('',*,*,#722,.F.);
#936=ORIENTED_EDGE('',*,*,#721,.T.);
#937=ORIENTED_EDGE('',*,*,#723,.F.);
#938=ORIENTED_EDGE('',*,*,#724,.F.);
#939=ORIENTED_EDGE('',*,*,#725,.F.);
#940=ORIENTED_EDGE('',*,*,#724,.T.);
#941=ORIENTED_EDGE('',*,*,#726,.F.);
#942=ORIENTED_EDGE('',*,*,#727,.F.);
#943=ORIENTED_EDGE('',*,*,#728,.T.);
#944=ORIENTED_EDGE('',*,*,#727,.T.);
#945=ORIENTED_EDGE('',*,*,#729,.F.);
#946=ORIENTED_EDGE('',*,*,#730,.F.);
#947=ORIENTED_EDGE('',*,*,#731,.F.);
#948=ORIENTED_EDGE('',*,*,#730,.T.);
#949=ORIENTED_EDGE('',*,*,#732,.F.);
#950=ORIENTED_EDGE('',*,*,#733,.F.);
#951=ORIENTED_EDGE('',*,*,#734,.T.);
#952=ORIENTED_EDGE('',*,*,#733,.T.);
#953=ORIENTED_EDGE('',*,*,#735,.F.);
#954=ORIENTED_EDGE('',*,*,#736,.F.);
#955=ORIENTED_EDGE('',*,*,#737,.F.);
#956=ORIENTED_EDGE('',*,*,#736,.T.);
#957=ORIENTED_EDGE('',*,*,#738,.F.);
#958=ORIENTED_EDGE('',*,*,#716,.F.);
#959=ORIENTED_EDGE('',*,*,#739,.F.);
#960=ORIENTED_EDGE('',*,*,#740,.T.);
#961=ORIENTED_EDGE('',*,*,#741,.F.);
#962=ORIENTED_EDGE('',*,*,#742,.F.);
#963=ORIENTED_EDGE('',*,*,#743,.F.);
#964=ORIENTED_EDGE('',*,*,#742,.T.);
#965=ORIENTED_EDGE('',*,*,#744,.F.);
#966=ORIENTED_EDGE('',*,*,#745,.F.);
#967=ORIENTED_EDGE('',*,*,#746,.T.);
#968=ORIENTED_EDGE('',*,*,#745,.T.);
#969=ORIENTED_EDGE('',*,*,#747,.F.);
#970=ORIENTED_EDGE('',*,*,#748,.F.);
#971=ORIENTED_EDGE('',*,*,#749,.T.);
#972=ORIENTED_EDGE('',*,*,#748,.T.);
#973=ORIENTED_EDGE('',*,*,#750,.F.);
#974=ORIENTED_EDGE('',*,*,#740,.F.);
#975=ORIENTED_EDGE('',*,*,#750,.T.);
#976=ORIENTED_EDGE('',*,*,#747,.T.);
#977=ORIENTED_EDGE('',*,*,#744,.T.);
#978=ORIENTED_EDGE('',*,*,#741,.T.);
#979=ORIENTED_EDGE('',*,*,#738,.T.);
#980=ORIENTED_EDGE('',*,*,#735,.T.);
#981=ORIENTED_EDGE('',*,*,#732,.T.);
#982=ORIENTED_EDGE('',*,*,#729,.T.);
#983=ORIENTED_EDGE('',*,*,#726,.T.);
#984=ORIENTED_EDGE('',*,*,#723,.T.);
#985=ORIENTED_EDGE('',*,*,#720,.T.);
#986=ORIENTED_EDGE('',*,*,#717,.T.);
#987=ORIENTED_EDGE('',*,*,#714,.T.);
#988=ORIENTED_EDGE('',*,*,#711,.T.);
#989=ORIENTED_EDGE('',*,*,#708,.T.);
#990=ORIENTED_EDGE('',*,*,#705,.T.);
#991=ORIENTED_EDGE('',*,*,#702,.T.);
#992=ORIENTED_EDGE('',*,*,#699,.T.);
#993=ORIENTED_EDGE('',*,*,#696,.T.);
#994=ORIENTED_EDGE('',*,*,#693,.T.);
#995=ORIENTED_EDGE('',*,*,#690,.T.);
#996=ORIENTED_EDGE('',*,*,#687,.T.);
#997=ORIENTED_EDGE('',*,*,#684,.T.);
#998=ORIENTED_EDGE('',*,*,#681,.T.);
#999=ORIENTED_EDGE('',*,*,#678,.T.);
#1000=ORIENTED_EDGE('',*,*,#675,.T.);
#1001=ORIENTED_EDGE('',*,*,#672,.T.);
#1002=ORIENTED_EDGE('',*,*,#669,.T.);
#1003=ORIENTED_EDGE('',*,*,#666,.T.);
#1004=ORIENTED_EDGE('',*,*,#663,.T.);
#1005=ORIENTED_EDGE('',*,*,#660,.T.);
#1006=ORIENTED_EDGE('',*,*,#657,.T.);
#1007=ORIENTED_EDGE('',*,*,#654,.T.);
#1008=ORIENTED_EDGE('',*,*,#651,.T.);
#1009=ORIENTED_EDGE('',*,*,#648,.T.);
#1010=ORIENTED_EDGE('',*,*,#645,.T.);
#1011=ORIENTED_EDGE('',*,*,#642,.T.);
#1012=ORIENTED_EDGE('',*,*,#639,.T.);
#1013=ORIENTED_EDGE('',*,*,#636,.T.);
#1014=ORIENTED_EDGE('',*,*,#633,.T.);
#1015=ORIENTED_EDGE('',*,*,#630,.T.);
#1016=ORIENTED_EDGE('',*,*,#627,.T.);
#1017=ORIENTED_EDGE('',*,*,#624,.T.);
#1018=ORIENTED_EDGE('',*,*,#621,.T.);
#1019=ORIENTED_EDGE('',*,*,#618,.T.);
#1020=ORIENTED_EDGE('',*,*,#615,.T.);
#1021=ORIENTED_EDGE('',*,*,#612,.T.);
#1022=ORIENTED_EDGE('',*,*,#609,.T.);
#1023=ORIENTED_EDGE('',*,*,#606,.T.);
#1024=ORIENTED_EDGE('',*,*,#603,.T.);
#1025=ORIENTED_EDGE('',*,*,#600,.T.);
#1026=ORIENTED_EDGE('',*,*,#597,.T.);
#1027=ORIENTED_EDGE('',*,*,#594,.T.);
#1028=ORIENTED_EDGE('',*,*,#591,.T.);
#1029=ORIENTED_EDGE('',*,*,#588,.T.);
#1030=ORIENTED_EDGE('',*,*,#585,.T.);
#1031=ORIENTED_EDGE('',*,*,#749,.F.);
#1032=ORIENTED_EDGE('',*,*,#739,.T.);
#1033=ORIENTED_EDGE('',*,*,#743,.T.);
#1034=ORIENTED_EDGE('',*,*,#746,.F.);
#1035=ORIENTED_EDGE('',*,*,#737,.T.);
#1036=ORIENTED_EDGE('',*,*,#715,.T.);
#1037=ORIENTED_EDGE('',*,*,#719,.T.);
#1038=ORIENTED_EDGE('',*,*,#722,.T.);
#1039=ORIENTED_EDGE('',*,*,#725,.T.);
#1040=ORIENTED_EDGE('',*,*,#728,.F.);
#1041=ORIENTED_EDGE('',*,*,#731,.T.);
#1042=ORIENTED_EDGE('',*,*,#734,.F.);
#1043=ORIENTED_EDGE('',*,*,#713,.F.);
#1044=ORIENTED_EDGE('',*,*,#691,.T.);
#1045=ORIENTED_EDGE('',*,*,#695,.T.);
#1046=ORIENTED_EDGE('',*,*,#698,.T.);
#1047=ORIENTED_EDGE('',*,*,#701,.T.);
#1048=ORIENTED_EDGE('',*,*,#704,.T.);
#1049=ORIENTED_EDGE('',*,*,#707,.F.);
#1050=ORIENTED_EDGE('',*,*,#710,.T.);
#1051=ORIENTED_EDGE('',*,*,#689,.F.);
#1052=ORIENTED_EDGE('',*,*,#667,.T.);
#1053=ORIENTED_EDGE('',*,*,#671,.T.);
#1054=ORIENTED_EDGE('',*,*,#674,.T.);
#1055=ORIENTED_EDGE('',*,*,#677,.T.);
#1056=ORIENTED_EDGE('',*,*,#680,.T.);
#1057=ORIENTED_EDGE('',*,*,#683,.F.);
#1058=ORIENTED_EDGE('',*,*,#686,.T.);
#1059=ORIENTED_EDGE('',*,*,#665,.F.);
#1060=ORIENTED_EDGE('',*,*,#643,.T.);
#1061=ORIENTED_EDGE('',*,*,#647,.T.);
#1062=ORIENTED_EDGE('',*,*,#650,.T.);
#1063=ORIENTED_EDGE('',*,*,#653,.T.);
#1064=ORIENTED_EDGE('',*,*,#656,.T.);
#1065=ORIENTED_EDGE('',*,*,#659,.F.);
#1066=ORIENTED_EDGE('',*,*,#662,.T.);
#1067=ORIENTED_EDGE('',*,*,#641,.F.);
#1068=ORIENTED_EDGE('',*,*,#619,.T.);
#1069=ORIENTED_EDGE('',*,*,#623,.T.);
#1070=ORIENTED_EDGE('',*,*,#626,.T.);
#1071=ORIENTED_EDGE('',*,*,#629,.T.);
#1072=ORIENTED_EDGE('',*,*,#632,.T.);
#1073=ORIENTED_EDGE('',*,*,#635,.F.);
#1074=ORIENTED_EDGE('',*,*,#638,.T.);
#1075=ORIENTED_EDGE('',*,*,#617,.F.);
#1076=ORIENTED_EDGE('',*,*,#595,.T.);
#1077=ORIENTED_EDGE('',*,*,#599,.T.);
#1078=ORIENTED_EDGE('',*,*,#602,.T.);
#1079=ORIENTED_EDGE('',*,*,#605,.T.);
#1080=ORIENTED_EDGE('',*,*,#608,.T.);
#1081=ORIENTED_EDGE('',*,*,#611,.F.);
#1082=ORIENTED_EDGE('',*,*,#614,.T.);
#1083=ORIENTED_EDGE('',*,*,#593,.T.);
#1084=ORIENTED_EDGE('',*,*,#583,.T.);
#1085=ORIENTED_EDGE('',*,*,#587,.T.);
#1086=ORIENTED_EDGE('',*,*,#590,.T.);
#1087=PLANE('',#1193);
#1088=PLANE('',#1194);
#1089=PLANE('',#1195);
#1090=PLANE('',#1196);
#1091=PLANE('',#1200);
#1092=PLANE('',#1204);
#1093=PLANE('',#1208);
#1094=PLANE('',#1212);
#1095=PLANE('',#1216);
#1096=PLANE('',#1220);
#1097=PLANE('',#1224);
#1098=PLANE('',#1228);
#1099=PLANE('',#1232);
#1100=PLANE('',#1236);
#1101=PLANE('',#1240);
#1102=PLANE('',#1244);
#1103=PLANE('',#1248);
#1104=PLANE('',#1252);
#1105=PLANE('',#1256);
#1106=PLANE('',#1260);
#1107=PLANE('',#1264);
#1108=PLANE('',#1268);
#1109=PLANE('',#1272);
#1110=PLANE('',#1276);
#1111=PLANE('',#1277);
#1112=PLANE('',#1281);
#1113=PLANE('',#1285);
#1114=PLANE('',#1289);
#1115=PLANE('',#1293);
#1116=PLANE('',#1294);
#1117=PLANE('',#1295);
#1118=PLANE('',#1296);
#1119=PLANE('',#1297);
#1120=PLANE('',#1298);
#1121=ADVANCED_FACE('',(#101),#1087,.T.);
#1122=ADVANCED_FACE('',(#102),#1088,.T.);
#1123=ADVANCED_FACE('',(#103),#1089,.T.);
#1124=ADVANCED_FACE('',(#104),#1090,.T.);
#1125=ADVANCED_FACE('',(#105),#77,.F.);
#1126=ADVANCED_FACE('',(#106),#1091,.T.);
#1127=ADVANCED_FACE('',(#107),#78,.F.);
#1128=ADVANCED_FACE('',(#108),#1092,.T.);
#1129=ADVANCED_FACE('',(#109),#79,.F.);
#1130=ADVANCED_FACE('',(#110),#1093,.T.);
#1131=ADVANCED_FACE('',(#111),#80,.F.);
#1132=ADVANCED_FACE('',(#112),#1094,.T.);
#1133=ADVANCED_FACE('',(#113),#81,.F.);
#1134=ADVANCED_FACE('',(#114),#1095,.T.);
#1135=ADVANCED_FACE('',(#115),#82,.F.);
#1136=ADVANCED_FACE('',(#116),#1096,.T.);
#1137=ADVANCED_FACE('',(#117),#83,.F.);
#1138=ADVANCED_FACE('',(#118),#1097,.T.);
#1139=ADVANCED_FACE('',(#119),#84,.F.);
#1140=ADVANCED_FACE('',(#120),#1098,.T.);
#1141=ADVANCED_FACE('',(#121),#85,.F.);
#1142=ADVANCED_FACE('',(#122),#1099,.T.);
#1143=ADVANCED_FACE('',(#123),#86,.F.);
#1144=ADVANCED_FACE('',(#124),#1100,.T.);
#1145=ADVANCED_FACE('',(#125),#87,.F.);
#1146=ADVANCED_FACE('',(#126),#1101,.T.);
#1147=ADVANCED_FACE('',(#127),#88,.F.);
#1148=ADVANCED_FACE('',(#128),#1102,.T.);
#1149=ADVANCED_FACE('',(#129),#89,.F.);
#1150=ADVANCED_FACE('',(#130),#1103,.T.);
#1151=ADVANCED_FACE('',(#131),#90,.F.);
#1152=ADVANCED_FACE('',(#132),#1104,.T.);
#1153=ADVANCED_FACE('',(#133),#91,.F.);
#1154=ADVANCED_FACE('',(#134),#1105,.T.);
#1155=ADVANCED_FACE('',(#135),#92,.F.);
#1156=ADVANCED_FACE('',(#136),#1106,.T.);
#1157=ADVANCED_FACE('',(#137),#93,.F.);
#1158=ADVANCED_FACE('',(#138),#1107,.T.);
#1159=ADVANCED_FACE('',(#139),#94,.F.);
#1160=ADVANCED_FACE('',(#140),#1108,.T.);
#1161=ADVANCED_FACE('',(#141),#95,.F.);
#1162=ADVANCED_FACE('',(#142),#1109,.T.);
#1163=ADVANCED_FACE('',(#143),#96,.F.);
#1164=ADVANCED_FACE('',(#144),#1110,.T.);
#1165=ADVANCED_FACE('',(#145),#1111,.T.);
#1166=ADVANCED_FACE('',(#146),#97,.F.);
#1167=ADVANCED_FACE('',(#147),#1112,.T.);
#1168=ADVANCED_FACE('',(#148),#98,.F.);
#1169=ADVANCED_FACE('',(#149),#1113,.T.);
#1170=ADVANCED_FACE('',(#150),#99,.F.);
#1171=ADVANCED_FACE('',(#151),#1114,.T.);
#1172=ADVANCED_FACE('',(#152),#100,.F.);
#1173=ADVANCED_FACE('',(#153),#1115,.T.);
#1174=ADVANCED_FACE('',(#154),#1116,.T.);
#1175=ADVANCED_FACE('',(#155),#1117,.T.);
#1176=ADVANCED_FACE('',(#156),#1118,.T.);
#1177=ADVANCED_FACE('',(#157,#15,#16,#17,#18,#19,#20,#21),#1119,.T.);
#1178=ADVANCED_FACE('',(#158,#22,#23,#24,#25,#26,#27,#28),#1120,.F.);
#1179=CLOSED_SHELL('',(#1121,#1122,#1123,#1124,#1125,#1126,#1127,#1128,
#1129,#1130,#1131,#1132,#1133,#1134,#1135,#1136,#1137,#1138,#1139,#1140,
#1141,#1142,#1143,#1144,#1145,#1146,#1147,#1148,#1149,#1150,#1151,#1152,
#1153,#1154,#1155,#1156,#1157,#1158,#1159,#1160,#1161,#1162,#1163,#1164,
#1165,#1166,#1167,#1168,#1169,#1170,#1171,#1172,#1173,#1174,#1175,#1176,
#1177,#1178));
#1180=DERIVED_UNIT_ELEMENT(#1182,1.);
#1181=DERIVED_UNIT_ELEMENT(#1977,-3.);
#1182=(
MASS_UNIT()
NAMED_UNIT(*)
SI_UNIT(.KILO.,.GRAM.)
);
#1183=DERIVED_UNIT((#1180,#1181));
#1184=MEASURE_REPRESENTATION_ITEM('density measure',
POSITIVE_RATIO_MEASURE(7850.),#1183);
#1185=PROPERTY_DEFINITION_REPRESENTATION(#1190,#1187);
#1186=PROPERTY_DEFINITION_REPRESENTATION(#1191,#1188);
#1187=REPRESENTATION('material name',(#1189),#1974);
#1188=REPRESENTATION('density',(#1184),#1974);
#1189=DESCRIPTIVE_REPRESENTATION_ITEM('Steel','Steel');
#1190=PROPERTY_DEFINITION('material property','material name',#1984);
#1191=PROPERTY_DEFINITION('material property','density of part',#1984);
#1192=AXIS2_PLACEMENT_3D('',#1633,#1299,#1300);
#1193=AXIS2_PLACEMENT_3D('',#1634,#1301,#1302);
#1194=AXIS2_PLACEMENT_3D('',#1643,#1307,#1308);
#1195=AXIS2_PLACEMENT_3D('',#1649,#1312,#1313);
#1196=AXIS2_PLACEMENT_3D('',#1655,#1317,#1318);
#1197=AXIS2_PLACEMENT_3D('',#1658,#1321,#1322);
#1198=AXIS2_PLACEMENT_3D('',#1661,#1323,#1324);
#1199=AXIS2_PLACEMENT_3D('',#1665,#1326,#1327);
#1200=AXIS2_PLACEMENT_3D('',#1667,#1329,#1330);
#1201=AXIS2_PLACEMENT_3D('',#1673,#1334,#1335);
#1202=AXIS2_PLACEMENT_3D('',#1675,#1336,#1337);
#1203=AXIS2_PLACEMENT_3D('',#1677,#1338,#1339);
#1204=AXIS2_PLACEMENT_3D('',#1679,#1341,#1342);
#1205=AXIS2_PLACEMENT_3D('',#1685,#1346,#1347);
#1206=AXIS2_PLACEMENT_3D('',#1687,#1348,#1349);
#1207=AXIS2_PLACEMENT_3D('',#1689,#1350,#1351);
#1208=AXIS2_PLACEMENT_3D('',#1691,#1353,#1354);
#1209=AXIS2_PLACEMENT_3D('',#1697,#1358,#1359);
#1210=AXIS2_PLACEMENT_3D('',#1699,#1360,#1361);
#1211=AXIS2_PLACEMENT_3D('',#1701,#1362,#1363);
#1212=AXIS2_PLACEMENT_3D('',#1703,#1365,#1366);
#1213=AXIS2_PLACEMENT_3D('',#1706,#1369,#1370);
#1214=AXIS2_PLACEMENT_3D('',#1709,#1371,#1372);
#1215=AXIS2_PLACEMENT_3D('',#1713,#1374,#1375);
#1216=AXIS2_PLACEMENT_3D('',#1715,#1377,#1378);
#1217=AXIS2_PLACEMENT_3D('',#1721,#1382,#1383);
#1218=AXIS2_PLACEMENT_3D('',#1723,#1384,#1385);
#1219=AXIS2_PLACEMENT_3D('',#1725,#1386,#1387);
#1220=AXIS2_PLACEMENT_3D('',#1727,#1389,#1390);
#1221=AXIS2_PLACEMENT_3D('',#1733,#1394,#1395);
#1222=AXIS2_PLACEMENT_3D('',#1735,#1396,#1397);
#1223=AXIS2_PLACEMENT_3D('',#1737,#1398,#1399);
#1224=AXIS2_PLACEMENT_3D('',#1739,#1401,#1402);
#1225=AXIS2_PLACEMENT_3D('',#1745,#1406,#1407);
#1226=AXIS2_PLACEMENT_3D('',#1747,#1408,#1409);
#1227=AXIS2_PLACEMENT_3D('',#1749,#1410,#1411);
#1228=AXIS2_PLACEMENT_3D('',#1751,#1413,#1414);
#1229=AXIS2_PLACEMENT_3D('',#1754,#1417,#1418);
#1230=AXIS2_PLACEMENT_3D('',#1757,#1419,#1420);
#1231=AXIS2_PLACEMENT_3D('',#1761,#1422,#1423);
#1232=AXIS2_PLACEMENT_3D('',#1763,#1425,#1426);
#1233=AXIS2_PLACEMENT_3D('',#1769,#1430,#1431);
#1234=AXIS2_PLACEMENT_3D('',#1771,#1432,#1433);
#1235=AXIS2_PLACEMENT_3D('',#1773,#1434,#1435);
#1236=AXIS2_PLACEMENT_3D('',#1775,#1437,#1438);
#1237=AXIS2_PLACEMENT_3D('',#1781,#1442,#1443);
#1238=AXIS2_PLACEMENT_3D('',#1783,#1444,#1445);
#1239=AXIS2_PLACEMENT_3D('',#1785,#1446,#1447);
#1240=AXIS2_PLACEMENT_3D('',#1787,#1449,#1450);
#1241=AXIS2_PLACEMENT_3D('',#1793,#1454,#1455);
#1242=AXIS2_PLACEMENT_3D('',#1795,#1456,#1457);
#1243=AXIS2_PLACEMENT_3D('',#1797,#1458,#1459);
#1244=AXIS2_PLACEMENT_3D('',#1799,#1461,#1462);
#1245=AXIS2_PLACEMENT_3D('',#1802,#1465,#1466);
#1246=AXIS2_PLACEMENT_3D('',#1805,#1467,#1468);
#1247=AXIS2_PLACEMENT_3D('',#1809,#1470,#1471);
#1248=AXIS2_PLACEMENT_3D('',#1811,#1473,#1474);
#1249=AXIS2_PLACEMENT_3D('',#1817,#1478,#1479);
#1250=AXIS2_PLACEMENT_3D('',#1819,#1480,#1481);
#1251=AXIS2_PLACEMENT_3D('',#1821,#1482,#1483);
#1252=AXIS2_PLACEMENT_3D('',#1823,#1485,#1486);
#1253=AXIS2_PLACEMENT_3D('',#1829,#1490,#1491);
#1254=AXIS2_PLACEMENT_3D('',#1831,#1492,#1493);
#1255=AXIS2_PLACEMENT_3D('',#1833,#1494,#1495);
#1256=AXIS2_PLACEMENT_3D('',#1835,#1497,#1498);
#1257=AXIS2_PLACEMENT_3D('',#1841,#1502,#1503);
#1258=AXIS2_PLACEMENT_3D('',#1843,#1504,#1505);
#1259=AXIS2_PLACEMENT_3D('',#1845,#1506,#1507);
#1260=AXIS2_PLACEMENT_3D('',#1847,#1509,#1510);
#1261=AXIS2_PLACEMENT_3D('',#1850,#1513,#1514);
#1262=AXIS2_PLACEMENT_3D('',#1853,#1515,#1516);
#1263=AXIS2_PLACEMENT_3D('',#1857,#1518,#1519);
#1264=AXIS2_PLACEMENT_3D('',#1859,#1521,#1522);
#1265=AXIS2_PLACEMENT_3D('',#1865,#1526,#1527);
#1266=AXIS2_PLACEMENT_3D('',#1867,#1528,#1529);
#1267=AXIS2_PLACEMENT_3D('',#1869,#1530,#1531);
#1268=AXIS2_PLACEMENT_3D('',#1871,#1533,#1534);
#1269=AXIS2_PLACEMENT_3D('',#1877,#1538,#1539);
#1270=AXIS2_PLACEMENT_3D('',#1879,#1540,#1541);
#1271=AXIS2_PLACEMENT_3D('',#1881,#1542,#1543);
#1272=AXIS2_PLACEMENT_3D('',#1883,#1545,#1546);
#1273=AXIS2_PLACEMENT_3D('',#1889,#1550,#1551);
#1274=AXIS2_PLACEMENT_3D('',#1891,#1552,#1553);
#1275=AXIS2_PLACEMENT_3D('',#1893,#1554,#1555);
#1276=AXIS2_PLACEMENT_3D('',#1895,#1557,#1558);
#1277=AXIS2_PLACEMENT_3D('',#1898,#1561,#1562);
#1278=AXIS2_PLACEMENT_3D('',#1907,#1567,#1568);
#1279=AXIS2_PLACEMENT_3D('',#1909,#1569,#1570);
#1280=AXIS2_PLACEMENT_3D('',#1911,#1571,#1572);
#1281=AXIS2_PLACEMENT_3D('',#1913,#1574,#1575);
#1282=AXIS2_PLACEMENT_3D('',#1919,#1579,#1580);
#1283=AXIS2_PLACEMENT_3D('',#1921,#1581,#1582);
#1284=AXIS2_PLACEMENT_3D('',#1923,#1583,#1584);
#1285=AXIS2_PLACEMENT_3D('',#1925,#1586,#1587);
#1286=AXIS2_PLACEMENT_3D('',#1931,#1591,#1592);
#1287=AXIS2_PLACEMENT_3D('',#1933,#1593,#1594);
#1288=AXIS2_PLACEMENT_3D('',#1935,#1595,#1596);
#1289=AXIS2_PLACEMENT_3D('',#1937,#1598,#1599);
#1290=AXIS2_PLACEMENT_3D('',#1943,#1603,#1604);
#1291=AXIS2_PLACEMENT_3D('',#1944,#1605,#1606);
#1292=AXIS2_PLACEMENT_3D('',#1945,#1607,#1608);
#1293=AXIS2_PLACEMENT_3D('',#1946,#1609,#1610);
#1294=AXIS2_PLACEMENT_3D('',#1955,#1615,#1616);
#1295=AXIS2_PLACEMENT_3D('',#1961,#1620,#1621);
#1296=AXIS2_PLACEMENT_3D('',#1967,#1625,#1626);
#1297=AXIS2_PLACEMENT_3D('',#1970,#1629,#1630);
#1298=AXIS2_PLACEMENT_3D('',#1971,#1631,#1632);
#1299=DIRECTION('axis',(0.,0.,1.));
#1300=DIRECTION('refdir',(1.,0.,0.));
#1301=DIRECTION('center_axis',(1.,0.,0.));
#1302=DIRECTION('ref_axis',(0.,1.,0.));
#1303=DIRECTION('',(0.,-1.,0.));
#1304=DIRECTION('',(0.,0.,1.));
#1305=DIRECTION('',(0.,1.,0.));
#1306=DIRECTION('',(0.,0.,1.));
#1307=DIRECTION('center_axis',(0.,1.,0.));
#1308=DIRECTION('ref_axis',(-1.,0.,0.));
#1309=DIRECTION('',(1.,0.,0.));
#1310=DIRECTION('',(-1.,0.,0.));
#1311=DIRECTION('',(0.,0.,1.));
#1312=DIRECTION('center_axis',(-1.,0.,0.));
#1313=DIRECTION('ref_axis',(0.,-1.,0.));
#1314=DIRECTION('',(0.,1.,0.));
#1315=DIRECTION('',(0.,-1.,0.));
#1316=DIRECTION('',(0.,0.,1.));
#1317=DIRECTION('center_axis',(0.,-1.,0.));
#1318=DIRECTION('ref_axis',(1.,0.,0.));
#1319=DIRECTION('',(-1.,0.,0.));
#1320=DIRECTION('',(1.,0.,0.));
#1321=DIRECTION('center_axis',(0.,0.,1.));
#1322=DIRECTION('ref_axis',(0.,1.,0.));
#1323=DIRECTION('center_axis',(0.,0.,1.));
#1324=DIRECTION('ref_axis',(0.,1.,0.));
#1325=DIRECTION('',(0.,0.,1.));
#1326=DIRECTION('center_axis',(0.,0.,-1.));
#1327=DIRECTION('ref_axis',(0.,1.,0.));
#1328=DIRECTION('',(0.,0.,1.));
#1329=DIRECTION('center_axis',(1.,0.,0.));
#1330=DIRECTION('ref_axis',(0.,1.,0.));
#1331=DIRECTION('',(0.,-1.,0.));
#1332=DIRECTION('',(0.,1.,0.));
#1333=DIRECTION('',(0.,0.,1.));
#1334=DIRECTION('center_axis',(0.,0.,1.));
#1335=DIRECTION('ref_axis',(-1.,0.,0.));
#1336=DIRECTION('center_axis',(0.,0.,1.));
#1337=DIRECTION('ref_axis',(-1.,0.,0.));
#1338=DIRECTION('center_axis',(0.,0.,-1.));
#1339=DIRECTION('ref_axis',(-1.,0.,0.));
#1340=DIRECTION('',(0.,0.,1.));
#1341=DIRECTION('center_axis',(0.,1.,0.));
#1342=DIRECTION('ref_axis',(-1.,0.,0.));
#1343=DIRECTION('',(1.,0.,0.));
#1344=DIRECTION('',(-1.,0.,0.));
#1345=DIRECTION('',(0.,0.,1.));
#1346=DIRECTION('center_axis',(0.,0.,1.));
#1347=DIRECTION('ref_axis',(0.,-1.,0.));
#1348=DIRECTION('center_axis',(0.,0.,1.));
#1349=DIRECTION('ref_axis',(0.,-1.,0.));
#1350=DIRECTION('center_axis',(0.,0.,-1.));
#1351=DIRECTION('ref_axis',(0.,-1.,0.));
#1352=DIRECTION('',(0.,0.,1.));
#1353=DIRECTION('center_axis',(-1.,0.,0.));
#1354=DIRECTION('ref_axis',(0.,-1.,0.));
#1355=DIRECTION('',(0.,-1.,0.));
#1356=DIRECTION('',(0.,-1.,0.));
#1357=DIRECTION('',(0.,0.,1.));
#1358=DIRECTION('center_axis',(0.,0.,1.));
#1359=DIRECTION('ref_axis',(1.,0.,0.));
#1360=DIRECTION('center_axis',(0.,0.,1.));
#1361=DIRECTION('ref_axis',(1.,0.,0.));
#1362=DIRECTION('center_axis',(0.,0.,-1.));
#1363=DIRECTION('ref_axis',(1.,0.,0.));
#1364=DIRECTION('',(0.,0.,1.));
#1365=DIRECTION('center_axis',(0.,-1.,0.));
#1366=DIRECTION('ref_axis',(1.,0.,0.));
#1367=DIRECTION('',(1.,0.,0.));
#1368=DIRECTION('',(1.,0.,0.));
#1369=DIRECTION('center_axis',(0.,0.,1.));
#1370=DIRECTION('ref_axis',(0.,1.,0.));
#1371=DIRECTION('center_axis',(0.,0.,1.));
#1372=DIRECTION('ref_axis',(0.,1.,0.));
#1373=DIRECTION('',(0.,0.,1.));
#1374=DIRECTION('center_axis',(0.,0.,-1.));
#1375=DIRECTION('ref_axis',(0.,1.,0.));
#1376=DIRECTION('',(0.,0.,1.));
#1377=DIRECTION('center_axis',(1.,0.,0.));
#1378=DIRECTION('ref_axis',(0.,1.,0.));
#1379=DIRECTION('',(0.,-1.,0.));
#1380=DIRECTION('',(0.,1.,0.));
#1381=DIRECTION('',(0.,0.,1.));
#1382=DIRECTION('center_axis',(0.,0.,1.));
#1383=DIRECTION('ref_axis',(-1.,0.,0.));
#1384=DIRECTION('center_axis',(0.,0.,1.));
#1385=DIRECTION('ref_axis',(-1.,0.,0.));
#1386=DIRECTION('center_axis',(0.,0.,-1.));
#1387=DIRECTION('ref_axis',(-1.,0.,0.));
#1388=DIRECTION('',(0.,0.,1.));
#1389=DIRECTION('center_axis',(0.,1.,0.));
#1390=DIRECTION('ref_axis',(-1.,0.,0.));
#1391=DIRECTION('',(1.,0.,0.));
#1392=DIRECTION('',(-1.,0.,0.));
#1393=DIRECTION('',(0.,0.,1.));
#1394=DIRECTION('center_axis',(0.,0.,1.));
#1395=DIRECTION('ref_axis',(0.,-1.,0.));
#1396=DIRECTION('center_axis',(0.,0.,1.));
#1397=DIRECTION('ref_axis',(0.,-1.,0.));
#1398=DIRECTION('center_axis',(0.,0.,-1.));
#1399=DIRECTION('ref_axis',(0.,-1.,0.));
#1400=DIRECTION('',(0.,0.,1.));
#1401=DIRECTION('center_axis',(-1.,0.,0.));
#1402=DIRECTION('ref_axis',(0.,-1.,0.));
#1403=DIRECTION('',(0.,-1.,0.));
#1404=DIRECTION('',(0.,-1.,0.));
#1405=DIRECTION('',(0.,0.,1.));
#1406=DIRECTION('center_axis',(0.,0.,1.));
#1407=DIRECTION('ref_axis',(1.,0.,0.));
#1408=DIRECTION('center_axis',(0.,0.,1.));
#1409=DIRECTION('ref_axis',(1.,0.,0.));
#1410=DIRECTION('center_axis',(0.,0.,-1.));
#1411=DIRECTION('ref_axis',(1.,0.,0.));
#1412=DIRECTION('',(0.,0.,1.));
#1413=DIRECTION('center_axis',(0.,-1.,0.));
#1414=DIRECTION('ref_axis',(1.,0.,0.));
#1415=DIRECTION('',(1.,0.,0.));
#1416=DIRECTION('',(1.,0.,0.));
#1417=DIRECTION('center_axis',(0.,0.,1.));
#1418=DIRECTION('ref_axis',(0.,1.,0.));
#1419=DIRECTION('center_axis',(0.,0.,1.));
#1420=DIRECTION('ref_axis',(0.,1.,0.));
#1421=DIRECTION('',(0.,0.,1.));
#1422=DIRECTION('center_axis',(0.,0.,-1.));
#1423=DIRECTION('ref_axis',(0.,1.,0.));
#1424=DIRECTION('',(0.,0.,1.));
#1425=DIRECTION('center_axis',(1.,0.,0.));
#1426=DIRECTION('ref_axis',(0.,1.,0.));
#1427=DIRECTION('',(0.,-1.,0.));
#1428=DIRECTION('',(0.,1.,0.));
#1429=DIRECTION('',(0.,0.,1.));
#1430=DIRECTION('center_axis',(0.,0.,1.));
#1431=DIRECTION('ref_axis',(-1.,0.,0.));
#1432=DIRECTION('center_axis',(0.,0.,1.));
#1433=DIRECTION('ref_axis',(-1.,0.,0.));
#1434=DIRECTION('center_axis',(0.,0.,-1.));
#1435=DIRECTION('ref_axis',(-1.,0.,0.));
#1436=DIRECTION('',(0.,0.,1.));
#1437=DIRECTION('center_axis',(0.,1.,0.));
#1438=DIRECTION('ref_axis',(-1.,0.,0.));
#1439=DIRECTION('',(1.,0.,0.));
#1440=DIRECTION('',(-1.,0.,0.));
#1441=DIRECTION('',(0.,0.,1.));
#1442=DIRECTION('center_axis',(0.,0.,1.));
#1443=DIRECTION('ref_axis',(0.,-1.,0.));
#1444=DIRECTION('center_axis',(0.,0.,1.));
#1445=DIRECTION('ref_axis',(0.,-1.,0.));
#1446=DIRECTION('center_axis',(0.,0.,-1.));
#1447=DIRECTION('ref_axis',(0.,-1.,0.));
#1448=DIRECTION('',(0.,0.,1.));
#1449=DIRECTION('center_axis',(-1.,0.,0.));
#1450=DIRECTION('ref_axis',(0.,-1.,0.));
#1451=DIRECTION('',(0.,-1.,0.));
#1452=DIRECTION('',(0.,-1.,0.));
#1453=DIRECTION('',(0.,0.,1.));
#1454=DIRECTION('center_axis',(0.,0.,1.));
#1455=DIRECTION('ref_axis',(1.,0.,0.));
#1456=DIRECTION('center_axis',(0.,0.,1.));
#1457=DIRECTION('ref_axis',(1.,0.,0.));
#1458=DIRECTION('center_axis',(0.,0.,-1.));
#1459=DIRECTION('ref_axis',(1.,0.,0.));
#1460=DIRECTION('',(0.,0.,1.));
#1461=DIRECTION('center_axis',(0.,-1.,0.));
#1462=DIRECTION('ref_axis',(1.,0.,0.));
#1463=DIRECTION('',(1.,0.,0.));
#1464=DIRECTION('',(1.,0.,0.));
#1465=DIRECTION('center_axis',(0.,0.,1.));
#1466=DIRECTION('ref_axis',(0.,1.,0.));
#1467=DIRECTION('center_axis',(0.,0.,1.));
#1468=DIRECTION('ref_axis',(0.,1.,0.));
#1469=DIRECTION('',(0.,0.,1.));
#1470=DIRECTION('center_axis',(0.,0.,-1.));
#1471=DIRECTION('ref_axis',(0.,1.,0.));
#1472=DIRECTION('',(0.,0.,1.));
#1473=DIRECTION('center_axis',(1.,0.,0.));
#1474=DIRECTION('ref_axis',(0.,1.,0.));
#1475=DIRECTION('',(0.,-1.,0.));
#1476=DIRECTION('',(0.,1.,0.));
#1477=DIRECTION('',(0.,0.,1.));
#1478=DIRECTION('center_axis',(0.,0.,1.));
#1479=DIRECTION('ref_axis',(-1.,0.,0.));
#1480=DIRECTION('center_axis',(0.,0.,1.));
#1481=DIRECTION('ref_axis',(-1.,0.,0.));
#1482=DIRECTION('center_axis',(0.,0.,-1.));
#1483=DIRECTION('ref_axis',(-1.,0.,0.));
#1484=DIRECTION('',(0.,0.,1.));
#1485=DIRECTION('center_axis',(0.,1.,0.));
#1486=DIRECTION('ref_axis',(-1.,0.,0.));
#1487=DIRECTION('',(1.,0.,0.));
#1488=DIRECTION('',(-1.,0.,0.));
#1489=DIRECTION('',(0.,0.,1.));
#1490=DIRECTION('center_axis',(0.,0.,1.));
#1491=DIRECTION('ref_axis',(0.,-1.,0.));
#1492=DIRECTION('center_axis',(0.,0.,1.));
#1493=DIRECTION('ref_axis',(0.,-1.,0.));
#1494=DIRECTION('center_axis',(0.,0.,-1.));
#1495=DIRECTION('ref_axis',(0.,-1.,0.));
#1496=DIRECTION('',(0.,0.,1.));
#1497=DIRECTION('center_axis',(-1.,0.,0.));
#1498=DIRECTION('ref_axis',(0.,-1.,0.));
#1499=DIRECTION('',(0.,-1.,0.));
#1500=DIRECTION('',(0.,-1.,0.));
#1501=DIRECTION('',(0.,0.,1.));
#1502=DIRECTION('center_axis',(0.,0.,1.));
#1503=DIRECTION('ref_axis',(1.,0.,0.));
#1504=DIRECTION('center_axis',(0.,0.,1.));
#1505=DIRECTION('ref_axis',(1.,0.,0.));
#1506=DIRECTION('center_axis',(0.,0.,-1.));
#1507=DIRECTION('ref_axis',(1.,0.,0.));
#1508=DIRECTION('',(0.,0.,1.));
#1509=DIRECTION('center_axis',(0.,-1.,0.));
#1510=DIRECTION('ref_axis',(1.,0.,0.));
#1511=DIRECTION('',(1.,0.,0.));
#1512=DIRECTION('',(1.,0.,0.));
#1513=DIRECTION('center_axis',(0.,0.,1.));
#1514=DIRECTION('ref_axis',(0.,1.,0.));
#1515=DIRECTION('center_axis',(0.,0.,1.));
#1516=DIRECTION('ref_axis',(0.,1.,0.));
#1517=DIRECTION('',(0.,0.,1.));
#1518=DIRECTION('center_axis',(0.,0.,-1.));
#1519=DIRECTION('ref_axis',(0.,1.,0.));
#1520=DIRECTION('',(0.,0.,1.));
#1521=DIRECTION('center_axis',(1.,0.,0.));
#1522=DIRECTION('ref_axis',(0.,1.,0.));
#1523=DIRECTION('',(0.,-1.,0.));
#1524=DIRECTION('',(0.,1.,0.));
#1525=DIRECTION('',(0.,0.,1.));
#1526=DIRECTION('center_axis',(0.,0.,1.));
#1527=DIRECTION('ref_axis',(-1.,0.,0.));
#1528=DIRECTION('center_axis',(0.,0.,1.));
#1529=DIRECTION('ref_axis',(-1.,0.,0.));
#1530=DIRECTION('center_axis',(0.,0.,-1.));
#1531=DIRECTION('ref_axis',(-1.,0.,0.));
#1532=DIRECTION('',(0.,0.,1.));
#1533=DIRECTION('center_axis',(3.41607084500048E-16,1.,0.));
#1534=DIRECTION('ref_axis',(-1.,3.41607084500048E-16,0.));
#1535=DIRECTION('',(1.,-3.41607084500048E-16,0.));
#1536=DIRECTION('',(-1.,3.41607084500048E-16,0.));
#1537=DIRECTION('',(0.,0.,1.));
#1538=DIRECTION('center_axis',(0.,0.,1.));
#1539=DIRECTION('ref_axis',(0.,-1.,0.));
#1540=DIRECTION('center_axis',(0.,0.,1.));
#1541=DIRECTION('ref_axis',(0.,-1.,0.));
#1542=DIRECTION('center_axis',(0.,0.,-1.));
#1543=DIRECTION('ref_axis',(0.,-1.,0.));
#1544=DIRECTION('',(0.,0.,1.));
#1545=DIRECTION('center_axis',(-1.,-3.41607084500048E-16,0.));
#1546=DIRECTION('ref_axis',(3.41607084500048E-16,-1.,0.));
#1547=DIRECTION('',(3.41607084500048E-16,-1.,0.));
#1548=DIRECTION('',(3.41607084500048E-16,-1.,0.));
#1549=DIRECTION('',(0.,0.,1.));
#1550=DIRECTION('center_axis',(0.,0.,1.));
#1551=DIRECTION('ref_axis',(1.,0.,0.));
#1552=DIRECTION('center_axis',(0.,0.,1.));
#1553=DIRECTION('ref_axis',(1.,0.,0.));
#1554=DIRECTION('center_axis',(0.,0.,-1.));
#1555=DIRECTION('ref_axis',(1.,0.,0.));
#1556=DIRECTION('',(0.,0.,1.));
#1557=DIRECTION('center_axis',(0.,-1.,0.));
#1558=DIRECTION('ref_axis',(1.,0.,0.));
#1559=DIRECTION('',(1.,0.,0.));
#1560=DIRECTION('',(1.,0.,0.));
#1561=DIRECTION('center_axis',(1.,0.,0.));
#1562=DIRECTION('ref_axis',(0.,1.,0.));
#1563=DIRECTION('',(0.,-1.,0.));
#1564=DIRECTION('',(0.,0.,1.));
#1565=DIRECTION('',(0.,1.,0.));
#1566=DIRECTION('',(0.,0.,1.));
#1567=DIRECTION('center_axis',(0.,0.,1.));
#1568=DIRECTION('ref_axis',(-1.,0.,0.));
#1569=DIRECTION('center_axis',(0.,0.,1.));
#1570=DIRECTION('ref_axis',(-1.,0.,0.));
#1571=DIRECTION('center_axis',(0.,0.,-1.));
#1572=DIRECTION('ref_axis',(-1.,0.,0.));
#1573=DIRECTION('',(0.,0.,1.));
#1574=DIRECTION('center_axis',(0.,1.,0.));
#1575=DIRECTION('ref_axis',(-1.,0.,0.));
#1576=DIRECTION('',(1.,0.,0.));
#1577=DIRECTION('',(-1.,0.,0.));
#1578=DIRECTION('',(0.,0.,1.));
#1579=DIRECTION('center_axis',(0.,0.,1.));
#1580=DIRECTION('ref_axis',(0.,-1.,0.));
#1581=DIRECTION('center_axis',(0.,0.,1.));
#1582=DIRECTION('ref_axis',(0.,-1.,0.));
#1583=DIRECTION('center_axis',(0.,0.,-1.));
#1584=DIRECTION('ref_axis',(0.,-1.,0.));
#1585=DIRECTION('',(0.,0.,1.));
#1586=DIRECTION('center_axis',(-1.,0.,0.));
#1587=DIRECTION('ref_axis',(0.,-1.,0.));
#1588=DIRECTION('',(0.,-1.,0.));
#1589=DIRECTION('',(0.,-1.,0.));
#1590=DIRECTION('',(0.,0.,1.));
#1591=DIRECTION('center_axis',(0.,0.,1.));
#1592=DIRECTION('ref_axis',(1.,0.,0.));
#1593=DIRECTION('center_axis',(0.,0.,1.));
#1594=DIRECTION('ref_axis',(1.,0.,0.));
#1595=DIRECTION('center_axis',(0.,0.,-1.));
#1596=DIRECTION('ref_axis',(1.,0.,0.));
#1597=DIRECTION('',(0.,0.,1.));
#1598=DIRECTION('center_axis',(0.,-1.,0.));
#1599=DIRECTION('ref_axis',(1.,0.,0.));
#1600=DIRECTION('',(1.,0.,0.));
#1601=DIRECTION('',(1.,0.,0.));
#1602=DIRECTION('',(0.,0.,1.));
#1603=DIRECTION('center_axis',(0.,0.,1.));
#1604=DIRECTION('ref_axis',(0.,1.,0.));
#1605=DIRECTION('center_axis',(0.,0.,1.));
#1606=DIRECTION('ref_axis',(0.,1.,0.));
#1607=DIRECTION('center_axis',(0.,0.,-1.));
#1608=DIRECTION('ref_axis',(0.,1.,0.));
#1609=DIRECTION('center_axis',(-1.,0.,0.));
#1610=DIRECTION('ref_axis',(0.,-1.,0.));
#1611=DIRECTION('',(0.,1.,0.));
#1612=DIRECTION('',(0.,0.,1.));
#1613=DIRECTION('',(0.,-1.,0.));
#1614=DIRECTION('',(0.,0.,1.));
#1615=DIRECTION('center_axis',(0.,1.,0.));
#1616=DIRECTION('ref_axis',(-1.,0.,0.));
#1617=DIRECTION('',(1.,0.,0.));
#1618=DIRECTION('',(-1.,0.,0.));
#1619=DIRECTION('',(0.,0.,1.));
#1620=DIRECTION('center_axis',(1.,0.,0.));
#1621=DIRECTION('ref_axis',(0.,1.,0.));
#1622=DIRECTION('',(0.,1.,0.));
#1623=DIRECTION('',(0.,1.,0.));
#1624=DIRECTION('',(0.,0.,1.));
#1625=DIRECTION('center_axis',(-5.12532265526101E-16,-1.,0.));
#1626=DIRECTION('ref_axis',(1.,-5.12532265526101E-16,0.));
#1627=DIRECTION('',(1.,-5.12532265526101E-16,0.));
#1628=DIRECTION('',(1.,-5.12532265526101E-16,0.));
#1629=DIRECTION('center_axis',(0.,0.,1.));
#1630=DIRECTION('ref_axis',(1.,0.,0.));
#1631=DIRECTION('center_axis',(0.,0.,1.));
#1632=DIRECTION('ref_axis',(1.,0.,0.));
#1633=CARTESIAN_POINT('',(0.,0.,0.));
#1634=CARTESIAN_POINT('Origin',(21.3084710904382,-14.8559622719477,0.));
#1635=CARTESIAN_POINT('',(21.3084710904382,-1.37254541287907,0.));
#1636=CARTESIAN_POINT('',(21.3084710904382,-14.8559622719477,0.));
#1637=CARTESIAN_POINT('',(21.3084710904382,-1.37254541287907,0.));
#1638=CARTESIAN_POINT('',(21.3084710904382,-1.37254541287907,3.));
#1639=CARTESIAN_POINT('',(21.3084710904382,-1.37254541287907,0.));
#1640=CARTESIAN_POINT('',(21.3084710904382,-14.8559622719477,3.));
#1641=CARTESIAN_POINT('',(21.3084710904382,-1.37254541287907,3.));
#1642=CARTESIAN_POINT('',(21.3084710904382,-14.8559622719477,0.));
#1643=CARTESIAN_POINT('Origin',(61.9192385350141,-14.8559622719477,0.));
#1644=CARTESIAN_POINT('',(61.9192385350141,-14.8559622719477,0.));
#1645=CARTESIAN_POINT('',(21.3084710904382,-14.8559622719477,0.));
#1646=CARTESIAN_POINT('',(61.9192385350141,-14.8559622719477,3.));
#1647=CARTESIAN_POINT('',(21.3084710904382,-14.8559622719477,3.));
#1648=CARTESIAN_POINT('',(61.9192385350141,-14.8559622719477,0.));
#1649=CARTESIAN_POINT('Origin',(61.9192385350141,-1.37254541287907,0.));
#1650=CARTESIAN_POINT('',(61.9192385350141,-1.37254541287907,0.));
#1651=CARTESIAN_POINT('',(61.9192385350141,-14.8559622719477,0.));
#1652=CARTESIAN_POINT('',(61.9192385350141,-1.37254541287907,3.));
#1653=CARTESIAN_POINT('',(61.9192385350141,-14.8559622719477,3.));
#1654=CARTESIAN_POINT('',(61.9192385350141,-1.37254541287907,0.));
#1655=CARTESIAN_POINT('Origin',(21.3084710904382,-1.37254541287907,0.));
#1656=CARTESIAN_POINT('',(61.9192385350141,-1.37254541287907,0.));
#1657=CARTESIAN_POINT('',(61.9192385350141,-1.37254541287907,3.));
#1658=CARTESIAN_POINT('Origin',(3.025,-3.025,0.));
#1659=CARTESIAN_POINT('',(3.025,-2.525,0.));
#1660=CARTESIAN_POINT('',(2.525,-3.025,0.));
#1661=CARTESIAN_POINT('Origin',(3.025,-3.025,0.));
#1662=CARTESIAN_POINT('',(3.025,-2.525,3.));
#1663=CARTESIAN_POINT('',(3.025,-2.525,0.));
#1664=CARTESIAN_POINT('',(2.525,-3.025,3.));
#1665=CARTESIAN_POINT('Origin',(3.025,-3.025,3.));
#1666=CARTESIAN_POINT('',(2.525,-3.025,0.));
#1667=CARTESIAN_POINT('Origin',(2.525,-16.025,0.));
#1668=CARTESIAN_POINT('',(2.525,-16.025,0.));
#1669=CARTESIAN_POINT('',(2.525,-3.025,0.));
#1670=CARTESIAN_POINT('',(2.525,-16.025,3.));
#1671=CARTESIAN_POINT('',(2.525,-3.025,3.));
#1672=CARTESIAN_POINT('',(2.525,-16.025,0.));
#1673=CARTESIAN_POINT('Origin',(3.025,-16.025,0.));
#1674=CARTESIAN_POINT('',(3.025,-16.525,0.));
#1675=CARTESIAN_POINT('Origin',(3.025,-16.025,0.));
#1676=CARTESIAN_POINT('',(3.025,-16.525,3.));
#1677=CARTESIAN_POINT('Origin',(3.025,-16.025,3.));
#1678=CARTESIAN_POINT('',(3.025,-16.525,0.));
#1679=CARTESIAN_POINT('Origin',(16.025,-16.525,0.));
#1680=CARTESIAN_POINT('',(16.025,-16.525,0.));
#1681=CARTESIAN_POINT('',(3.025,-16.525,0.));
#1682=CARTESIAN_POINT('',(16.025,-16.525,3.));
#1683=CARTESIAN_POINT('',(3.025,-16.525,3.));
#1684=CARTESIAN_POINT('',(16.025,-16.525,0.));
#1685=CARTESIAN_POINT('Origin',(16.025,-16.025,0.));
#1686=CARTESIAN_POINT('',(16.525,-16.025,0.));
#1687=CARTESIAN_POINT('Origin',(16.025,-16.025,0.));
#1688=CARTESIAN_POINT('',(16.525,-16.025,3.));
#1689=CARTESIAN_POINT('Origin',(16.025,-16.025,3.));
#1690=CARTESIAN_POINT('',(16.525,-16.025,0.));
#1691=CARTESIAN_POINT('Origin',(16.525,-3.025,0.));
#1692=CARTESIAN_POINT('',(16.525,-3.025,0.));
#1693=CARTESIAN_POINT('',(16.525,-3.025,0.));
#1694=CARTESIAN_POINT('',(16.525,-3.025,3.));
#1695=CARTESIAN_POINT('',(16.525,-3.025,3.));
#1696=CARTESIAN_POINT('',(16.525,-3.025,0.));
#1697=CARTESIAN_POINT('Origin',(16.025,-3.025,0.));
#1698=CARTESIAN_POINT('',(16.025,-2.525,0.));
#1699=CARTESIAN_POINT('Origin',(16.025,-3.025,0.));
#1700=CARTESIAN_POINT('',(16.025,-2.525,3.));
#1701=CARTESIAN_POINT('Origin',(16.025,-3.025,3.));
#1702=CARTESIAN_POINT('',(16.025,-2.525,0.));
#1703=CARTESIAN_POINT('Origin',(3.025,-2.525,0.));
#1704=CARTESIAN_POINT('',(3.025,-2.525,0.));
#1705=CARTESIAN_POINT('',(3.025,-2.525,3.));
#1706=CARTESIAN_POINT('Origin',(3.025,-41.125,0.));
#1707=CARTESIAN_POINT('',(3.025,-40.625,0.));
#1708=CARTESIAN_POINT('',(2.525,-41.125,0.));
#1709=CARTESIAN_POINT('Origin',(3.025,-41.125,0.));
#1710=CARTESIAN_POINT('',(3.025,-40.625,3.));
#1711=CARTESIAN_POINT('',(3.025,-40.625,0.));
#1712=CARTESIAN_POINT('',(2.525,-41.125,3.));
#1713=CARTESIAN_POINT('Origin',(3.025,-41.125,3.));
#1714=CARTESIAN_POINT('',(2.525,-41.125,0.));
#1715=CARTESIAN_POINT('Origin',(2.525,-54.125,0.));
#1716=CARTESIAN_POINT('',(2.525,-54.125,0.));
#1717=CARTESIAN_POINT('',(2.525,-41.125,0.));
#1718=CARTESIAN_POINT('',(2.525,-54.125,3.));
#1719=CARTESIAN_POINT('',(2.525,-41.125,3.));
#1720=CARTESIAN_POINT('',(2.525,-54.125,0.));
#1721=CARTESIAN_POINT('Origin',(3.025,-54.125,0.));
#1722=CARTESIAN_POINT('',(3.025,-54.625,0.));
#1723=CARTESIAN_POINT('Origin',(3.025,-54.125,0.));
#1724=CARTESIAN_POINT('',(3.025,-54.625,3.));
#1725=CARTESIAN_POINT('Origin',(3.025,-54.125,3.));
#1726=CARTESIAN_POINT('',(3.025,-54.625,0.));
#1727=CARTESIAN_POINT('Origin',(16.025,-54.625,0.));
#1728=CARTESIAN_POINT('',(16.025,-54.625,0.));
#1729=CARTESIAN_POINT('',(3.025,-54.625,0.));
#1730=CARTESIAN_POINT('',(16.025,-54.625,3.));
#1731=CARTESIAN_POINT('',(3.025,-54.625,3.));
#1732=CARTESIAN_POINT('',(16.025,-54.625,0.));
#1733=CARTESIAN_POINT('Origin',(16.025,-54.125,0.));
#1734=CARTESIAN_POINT('',(16.525,-54.125,0.));
#1735=CARTESIAN_POINT('Origin',(16.025,-54.125,0.));
#1736=CARTESIAN_POINT('',(16.525,-54.125,3.));
#1737=CARTESIAN_POINT('Origin',(16.025,-54.125,3.));
#1738=CARTESIAN_POINT('',(16.525,-54.125,0.));
#1739=CARTESIAN_POINT('Origin',(16.525,-41.125,0.));
#1740=CARTESIAN_POINT('',(16.525,-41.125,0.));
#1741=CARTESIAN_POINT('',(16.525,-41.125,0.));
#1742=CARTESIAN_POINT('',(16.525,-41.125,3.));
#1743=CARTESIAN_POINT('',(16.525,-41.125,3.));
#1744=CARTESIAN_POINT('',(16.525,-41.125,0.));
#1745=CARTESIAN_POINT('Origin',(16.025,-41.125,0.));
#1746=CARTESIAN_POINT('',(16.025,-40.625,0.));
#1747=CARTESIAN_POINT('Origin',(16.025,-41.125,0.));
#1748=CARTESIAN_POINT('',(16.025,-40.625,3.));
#1749=CARTESIAN_POINT('Origin',(16.025,-41.125,3.));
#1750=CARTESIAN_POINT('',(16.025,-40.625,0.));
#1751=CARTESIAN_POINT('Origin',(3.025,-40.625,0.));
#1752=CARTESIAN_POINT('',(3.025,-40.625,0.));
#1753=CARTESIAN_POINT('',(3.025,-40.625,3.));
#1754=CARTESIAN_POINT('Origin',(41.125,-41.125,0.));
#1755=CARTESIAN_POINT('',(41.125,-40.625,0.));
#1756=CARTESIAN_POINT('',(40.625,-41.125,0.));
#1757=CARTESIAN_POINT('Origin',(41.125,-41.125,0.));
#1758=CARTESIAN_POINT('',(41.125,-40.625,3.));
#1759=CARTESIAN_POINT('',(41.125,-40.625,0.));
#1760=CARTESIAN_POINT('',(40.625,-41.125,3.));
#1761=CARTESIAN_POINT('Origin',(41.125,-41.125,3.));
#1762=CARTESIAN_POINT('',(40.625,-41.125,0.));
#1763=CARTESIAN_POINT('Origin',(40.625,-54.125,0.));
#1764=CARTESIAN_POINT('',(40.625,-54.125,0.));
#1765=CARTESIAN_POINT('',(40.625,-41.125,0.));
#1766=CARTESIAN_POINT('',(40.625,-54.125,3.));
#1767=CARTESIAN_POINT('',(40.625,-41.125,3.));
#1768=CARTESIAN_POINT('',(40.625,-54.125,0.));
#1769=CARTESIAN_POINT('Origin',(41.125,-54.125,0.));
#1770=CARTESIAN_POINT('',(41.125,-54.625,0.));
#1771=CARTESIAN_POINT('Origin',(41.125,-54.125,0.));
#1772=CARTESIAN_POINT('',(41.125,-54.625,3.));
#1773=CARTESIAN_POINT('Origin',(41.125,-54.125,3.));
#1774=CARTESIAN_POINT('',(41.125,-54.625,0.));
#1775=CARTESIAN_POINT('Origin',(54.125,-54.625,0.));
#1776=CARTESIAN_POINT('',(54.125,-54.625,0.));
#1777=CARTESIAN_POINT('',(41.125,-54.625,0.));
#1778=CARTESIAN_POINT('',(54.125,-54.625,3.));
#1779=CARTESIAN_POINT('',(41.125,-54.625,3.));
#1780=CARTESIAN_POINT('',(54.125,-54.625,0.));
#1781=CARTESIAN_POINT('Origin',(54.125,-54.125,0.));
#1782=CARTESIAN_POINT('',(54.625,-54.125,0.));
#1783=CARTESIAN_POINT('Origin',(54.125,-54.125,0.));
#1784=CARTESIAN_POINT('',(54.625,-54.125,3.));
#1785=CARTESIAN_POINT('Origin',(54.125,-54.125,3.));
#1786=CARTESIAN_POINT('',(54.625,-54.125,0.));
#1787=CARTESIAN_POINT('Origin',(54.625,-41.125,0.));
#1788=CARTESIAN_POINT('',(54.625,-41.125,0.));
#1789=CARTESIAN_POINT('',(54.625,-41.125,0.));
#1790=CARTESIAN_POINT('',(54.625,-41.125,3.));
#1791=CARTESIAN_POINT('',(54.625,-41.125,3.));
#1792=CARTESIAN_POINT('',(54.625,-41.125,0.));
#1793=CARTESIAN_POINT('Origin',(54.125,-41.125,0.));
#1794=CARTESIAN_POINT('',(54.125,-40.625,0.));
#1795=CARTESIAN_POINT('Origin',(54.125,-41.125,0.));
#1796=CARTESIAN_POINT('',(54.125,-40.625,3.));
#1797=CARTESIAN_POINT('Origin',(54.125,-41.125,3.));
#1798=CARTESIAN_POINT('',(54.125,-40.625,0.));
#1799=CARTESIAN_POINT('Origin',(41.125,-40.625,0.));
#1800=CARTESIAN_POINT('',(41.125,-40.625,0.));
#1801=CARTESIAN_POINT('',(41.125,-40.625,3.));
#1802=CARTESIAN_POINT('Origin',(22.075,-41.125,0.));
#1803=CARTESIAN_POINT('',(22.075,-40.625,0.));
#1804=CARTESIAN_POINT('',(21.575,-41.125,0.));
#1805=CARTESIAN_POINT('Origin',(22.075,-41.125,0.));
#1806=CARTESIAN_POINT('',(22.075,-40.625,3.));
#1807=CARTESIAN_POINT('',(22.075,-40.625,0.));
#1808=CARTESIAN_POINT('',(21.575,-41.125,3.));
#1809=CARTESIAN_POINT('Origin',(22.075,-41.125,3.));
#1810=CARTESIAN_POINT('',(21.575,-41.125,0.));
#1811=CARTESIAN_POINT('Origin',(21.575,-54.125,0.));
#1812=CARTESIAN_POINT('',(21.575,-54.125,0.));
#1813=CARTESIAN_POINT('',(21.575,-41.125,0.));
#1814=CARTESIAN_POINT('',(21.575,-54.125,3.));
#1815=CARTESIAN_POINT('',(21.575,-41.125,3.));
#1816=CARTESIAN_POINT('',(21.575,-54.125,0.));
#1817=CARTESIAN_POINT('Origin',(22.075,-54.125,0.));
#1818=CARTESIAN_POINT('',(22.075,-54.625,0.));
#1819=CARTESIAN_POINT('Origin',(22.075,-54.125,0.));
#1820=CARTESIAN_POINT('',(22.075,-54.625,3.));
#1821=CARTESIAN_POINT('Origin',(22.075,-54.125,3.));
#1822=CARTESIAN_POINT('',(22.075,-54.625,0.));
#1823=CARTESIAN_POINT('Origin',(35.075,-54.625,0.));
#1824=CARTESIAN_POINT('',(35.075,-54.625,0.));
#1825=CARTESIAN_POINT('',(22.075,-54.625,0.));
#1826=CARTESIAN_POINT('',(35.075,-54.625,3.));
#1827=CARTESIAN_POINT('',(22.075,-54.625,3.));
#1828=CARTESIAN_POINT('',(35.075,-54.625,0.));
#1829=CARTESIAN_POINT('Origin',(35.075,-54.125,0.));
#1830=CARTESIAN_POINT('',(35.575,-54.125,0.));
#1831=CARTESIAN_POINT('Origin',(35.075,-54.125,0.));
#1832=CARTESIAN_POINT('',(35.575,-54.125,3.));
#1833=CARTESIAN_POINT('Origin',(35.075,-54.125,3.));
#1834=CARTESIAN_POINT('',(35.575,-54.125,0.));
#1835=CARTESIAN_POINT('Origin',(35.575,-41.125,0.));
#1836=CARTESIAN_POINT('',(35.575,-41.125,0.));
#1837=CARTESIAN_POINT('',(35.575,-41.125,0.));
#1838=CARTESIAN_POINT('',(35.575,-41.125,3.));
#1839=CARTESIAN_POINT('',(35.575,-41.125,3.));
#1840=CARTESIAN_POINT('',(35.575,-41.125,0.));
#1841=CARTESIAN_POINT('Origin',(35.075,-41.125,0.));
#1842=CARTESIAN_POINT('',(35.075,-40.625,0.));
#1843=CARTESIAN_POINT('Origin',(35.075,-41.125,0.));
#1844=CARTESIAN_POINT('',(35.075,-40.625,3.));
#1845=CARTESIAN_POINT('Origin',(35.075,-41.125,3.));
#1846=CARTESIAN_POINT('',(35.075,-40.625,0.));
#1847=CARTESIAN_POINT('Origin',(22.075,-40.625,0.));
#1848=CARTESIAN_POINT('',(22.075,-40.625,0.));
#1849=CARTESIAN_POINT('',(22.075,-40.625,3.));
#1850=CARTESIAN_POINT('Origin',(22.075,-22.075,0.));
#1851=CARTESIAN_POINT('',(22.075,-21.575,0.));
#1852=CARTESIAN_POINT('',(21.575,-22.075,0.));
#1853=CARTESIAN_POINT('Origin',(22.075,-22.075,0.));
#1854=CARTESIAN_POINT('',(22.075,-21.575,3.));
#1855=CARTESIAN_POINT('',(22.075,-21.575,0.));
#1856=CARTESIAN_POINT('',(21.575,-22.075,3.));
#1857=CARTESIAN_POINT('Origin',(22.075,-22.075,3.));
#1858=CARTESIAN_POINT('',(21.575,-22.075,0.));
#1859=CARTESIAN_POINT('Origin',(21.575,-35.075,0.));
#1860=CARTESIAN_POINT('',(21.575,-35.075,0.));
#1861=CARTESIAN_POINT('',(21.575,-22.075,0.));
#1862=CARTESIAN_POINT('',(21.575,-35.075,3.));
#1863=CARTESIAN_POINT('',(21.575,-22.075,3.));
#1864=CARTESIAN_POINT('',(21.575,-35.075,0.));
#1865=CARTESIAN_POINT('Origin',(22.075,-35.075,0.));
#1866=CARTESIAN_POINT('',(22.075,-35.575,0.));
#1867=CARTESIAN_POINT('Origin',(22.075,-35.075,0.));
#1868=CARTESIAN_POINT('',(22.075,-35.575,3.));
#1869=CARTESIAN_POINT('Origin',(22.075,-35.075,3.));
#1870=CARTESIAN_POINT('',(22.075,-35.575,0.));
#1871=CARTESIAN_POINT('Origin',(35.075,-35.575,0.));
#1872=CARTESIAN_POINT('',(35.075,-35.575,0.));
#1873=CARTESIAN_POINT('',(22.075,-35.575,0.));
#1874=CARTESIAN_POINT('',(35.075,-35.575,3.));
#1875=CARTESIAN_POINT('',(22.075,-35.575,3.));
#1876=CARTESIAN_POINT('',(35.075,-35.575,0.));
#1877=CARTESIAN_POINT('Origin',(35.075,-35.075,0.));
#1878=CARTESIAN_POINT('',(35.575,-35.075,0.));
#1879=CARTESIAN_POINT('Origin',(35.075,-35.075,0.));
#1880=CARTESIAN_POINT('',(35.575,-35.075,3.));
#1881=CARTESIAN_POINT('Origin',(35.075,-35.075,3.));
#1882=CARTESIAN_POINT('',(35.575,-35.075,0.));
#1883=CARTESIAN_POINT('Origin',(35.575,-22.075,0.));
#1884=CARTESIAN_POINT('',(35.575,-22.075,0.));
#1885=CARTESIAN_POINT('',(35.575,-22.075,0.));
#1886=CARTESIAN_POINT('',(35.575,-22.075,3.));
#1887=CARTESIAN_POINT('',(35.575,-22.075,3.));
#1888=CARTESIAN_POINT('',(35.575,-22.075,0.));
#1889=CARTESIAN_POINT('Origin',(35.075,-22.075,0.));
#1890=CARTESIAN_POINT('',(35.075,-21.575,0.));
#1891=CARTESIAN_POINT('Origin',(35.075,-22.075,0.));
#1892=CARTESIAN_POINT('',(35.075,-21.575,3.));
#1893=CARTESIAN_POINT('Origin',(35.075,-22.075,3.));
#1894=CARTESIAN_POINT('',(35.075,-21.575,0.));
#1895=CARTESIAN_POINT('Origin',(22.075,-21.575,0.));
#1896=CARTESIAN_POINT('',(22.075,-21.575,0.));
#1897=CARTESIAN_POINT('',(22.075,-21.575,3.));
#1898=CARTESIAN_POINT('Origin',(2.525,-35.075,0.));
#1899=CARTESIAN_POINT('',(2.525,-22.075,0.));
#1900=CARTESIAN_POINT('',(2.525,-35.075,0.));
#1901=CARTESIAN_POINT('',(2.525,-22.075,0.));
#1902=CARTESIAN_POINT('',(2.525,-22.075,3.));
#1903=CARTESIAN_POINT('',(2.525,-22.075,0.));
#1904=CARTESIAN_POINT('',(2.525,-35.075,3.));
#1905=CARTESIAN_POINT('',(2.525,-22.075,3.));
#1906=CARTESIAN_POINT('',(2.525,-35.075,0.));
#1907=CARTESIAN_POINT('Origin',(3.025,-35.075,0.));
#1908=CARTESIAN_POINT('',(3.025,-35.575,0.));
#1909=CARTESIAN_POINT('Origin',(3.025,-35.075,0.));
#1910=CARTESIAN_POINT('',(3.025,-35.575,3.));
#1911=CARTESIAN_POINT('Origin',(3.025,-35.075,3.));
#1912=CARTESIAN_POINT('',(3.025,-35.575,0.));
#1913=CARTESIAN_POINT('Origin',(16.025,-35.575,0.));
#1914=CARTESIAN_POINT('',(16.025,-35.575,0.));
#1915=CARTESIAN_POINT('',(3.025,-35.575,0.));
#1916=CARTESIAN_POINT('',(16.025,-35.575,3.));
#1917=CARTESIAN_POINT('',(3.025,-35.575,3.));
#1918=CARTESIAN_POINT('',(16.025,-35.575,0.));
#1919=CARTESIAN_POINT('Origin',(16.025,-35.075,0.));
#1920=CARTESIAN_POINT('',(16.525,-35.075,0.));
#1921=CARTESIAN_POINT('Origin',(16.025,-35.075,0.));
#1922=CARTESIAN_POINT('',(16.525,-35.075,3.));
#1923=CARTESIAN_POINT('Origin',(16.025,-35.075,3.));
#1924=CARTESIAN_POINT('',(16.525,-35.075,0.));
#1925=CARTESIAN_POINT('Origin',(16.525,-22.075,0.));
#1926=CARTESIAN_POINT('',(16.525,-22.075,0.));
#1927=CARTESIAN_POINT('',(16.525,-22.075,0.));
#1928=CARTESIAN_POINT('',(16.525,-22.075,3.));
#1929=CARTESIAN_POINT('',(16.525,-22.075,3.));
#1930=CARTESIAN_POINT('',(16.525,-22.075,0.));
#1931=CARTESIAN_POINT('Origin',(16.025,-22.075,0.));
#1932=CARTESIAN_POINT('',(16.025,-21.575,0.));
#1933=CARTESIAN_POINT('Origin',(16.025,-22.075,0.));
#1934=CARTESIAN_POINT('',(16.025,-21.575,3.));
#1935=CARTESIAN_POINT('Origin',(16.025,-22.075,3.));
#1936=CARTESIAN_POINT('',(16.025,-21.575,0.));
#1937=CARTESIAN_POINT('Origin',(3.025,-21.575,0.));
#1938=CARTESIAN_POINT('',(3.025,-21.575,0.));
#1939=CARTESIAN_POINT('',(3.025,-21.575,0.));
#1940=CARTESIAN_POINT('',(3.025,-21.575,3.));
#1941=CARTESIAN_POINT('',(3.025,-21.575,3.));
#1942=CARTESIAN_POINT('',(3.025,-21.575,0.));
#1943=CARTESIAN_POINT('Origin',(3.025,-22.075,0.));
#1944=CARTESIAN_POINT('Origin',(3.025,-22.075,0.));
#1945=CARTESIAN_POINT('Origin',(3.025,-22.075,3.));
#1946=CARTESIAN_POINT('Origin',(-12.1875189937136,11.8659801386094,0.));
#1947=CARTESIAN_POINT('',(-12.1875189937136,-70.6149620294829,0.));
#1948=CARTESIAN_POINT('',(-12.1875189937136,11.8659801386094,0.));
#1949=CARTESIAN_POINT('',(-12.1875189937136,-70.6149620294829,0.));
#1950=CARTESIAN_POINT('',(-12.1875189937136,-70.6149620294829,3.));
#1951=CARTESIAN_POINT('',(-12.1875189937136,-70.6149620294829,0.));
#1952=CARTESIAN_POINT('',(-12.1875189937136,11.8659801386094,3.));
#1953=CARTESIAN_POINT('',(-12.1875189937136,-70.6149620294829,3.));
#1954=CARTESIAN_POINT('',(-12.1875189937136,11.8659801386094,0.));
#1955=CARTESIAN_POINT('Origin',(74.4585791586078,11.8659801386094,0.));
#1956=CARTESIAN_POINT('',(74.4585791586078,11.8659801386094,0.));
#1957=CARTESIAN_POINT('',(-12.1875189937136,11.8659801386094,0.));
#1958=CARTESIAN_POINT('',(74.4585791586078,11.8659801386094,3.));
#1959=CARTESIAN_POINT('',(-12.1875189937136,11.8659801386094,3.));
#1960=CARTESIAN_POINT('',(74.4585791586078,11.8659801386094,0.));
#1961=CARTESIAN_POINT('Origin',(74.4585791586078,-70.6149620294829,0.));
#1962=CARTESIAN_POINT('',(74.4585791586078,-70.6149620294829,0.));
#1963=CARTESIAN_POINT('',(74.4585791586078,-70.6149620294829,0.));
#1964=CARTESIAN_POINT('',(74.4585791586078,-70.6149620294829,3.));
#1965=CARTESIAN_POINT('',(74.4585791586078,-70.6149620294829,3.));
#1966=CARTESIAN_POINT('',(74.4585791586078,-70.6149620294829,0.));
#1967=CARTESIAN_POINT('Origin',(-12.1875189937136,-70.6149620294829,0.));
#1968=CARTESIAN_POINT('',(-12.1875189937136,-70.6149620294829,0.));
#1969=CARTESIAN_POINT('',(-12.1875189937136,-70.6149620294829,3.));
#1970=CARTESIAN_POINT('Origin',(31.1355300824471,-29.3744909454367,3.));
#1971=CARTESIAN_POINT('Origin',(31.1355300824471,-29.3744909454367,0.));
#1972=UNCERTAINTY_MEASURE_WITH_UNIT(LENGTH_MEASURE(0.01),#1976,
'DISTANCE_ACCURACY_VALUE',
'Maximum model space distance between geometric entities at asserted c
onnectivities');
#1973=UNCERTAINTY_MEASURE_WITH_UNIT(LENGTH_MEASURE(0.01),#1976,
'DISTANCE_ACCURACY_VALUE',
'Maximum model space distance between geometric entities at asserted c
onnectivities');
#1974=(
GEOMETRIC_REPRESENTATION_CONTEXT(3)
GLOBAL_UNCERTAINTY_ASSIGNED_CONTEXT((#1972))
GLOBAL_UNIT_ASSIGNED_CONTEXT((#1976,#1978,#1979))
REPRESENTATION_CONTEXT('','3D')
);
#1975=(
GEOMETRIC_REPRESENTATION_CONTEXT(3)
GLOBAL_UNCERTAINTY_ASSIGNED_CONTEXT((#1973))
GLOBAL_UNIT_ASSIGNED_CONTEXT((#1976,#1978,#1979))
REPRESENTATION_CONTEXT('','3D')
);
#1976=(
LENGTH_UNIT()
NAMED_UNIT(*)
SI_UNIT(.MILLI.,.METRE.)
);
#1977=(
LENGTH_UNIT()
NAMED_UNIT(*)
SI_UNIT($,.METRE.)
);
#1978=(
NAMED_UNIT(*)
PLANE_ANGLE_UNIT()
SI_UNIT($,.RADIAN.)
);
#1979=(
NAMED_UNIT(*)
SI_UNIT($,.STERADIAN.)
SOLID_ANGLE_UNIT()
);
#1980=SHAPE_DEFINITION_REPRESENTATION(#1981,#1982);
#1981=PRODUCT_DEFINITION_SHAPE('',$,#1984);
#1982=SHAPE_REPRESENTATION('',(#1192),#1974);
#1983=PRODUCT_DEFINITION_CONTEXT('part definition',#1988,'design');
#1984=PRODUCT_DEFINITION('2026-08-22-18-34-50-185','keypad_plate',#1985,
#1983);
#1985=PRODUCT_DEFINITION_FORMATION('',$,#1990);
#1986=PRODUCT_RELATED_PRODUCT_CATEGORY('keypad_plate','keypad_plate',(#1990));
#1987=APPLICATION_PROTOCOL_DEFINITION('international standard',
'automotive_design',2009,#1988);
#1988=APPLICATION_CONTEXT(
'Core Data for Automotive Mechanical Design Process');
#1989=PRODUCT_CONTEXT('part definition',#1988,'mechanical');
#1990=PRODUCT('2026-08-22-18-34-50-185','keypad_plate',$,(#1989));
#1991=PRESENTATION_STYLE_ASSIGNMENT((#1993));
#1992=PRESENTATION_STYLE_ASSIGNMENT((#1994));
#1993=SURFACE_STYLE_USAGE(.BOTH.,#1995);
#1994=SURFACE_STYLE_USAGE(.BOTH.,#1996);
#1995=SURFACE_SIDE_STYLE('',(#1997));
#1996=SURFACE_SIDE_STYLE('',(#1998));
#1997=SURFACE_STYLE_FILL_AREA(#1999);
#1998=SURFACE_STYLE_FILL_AREA(#2000);
#1999=FILL_AREA_STYLE('Steel - Satin',(#2001));
#2000=FILL_AREA_STYLE('Paint - Enamel Glossy (Red)',(#2002));
#2001=FILL_AREA_STYLE_COLOUR('Steel - Satin',#2003);
#2002=FILL_AREA_STYLE_COLOUR('Paint - Enamel Glossy (Red)',#2004);
#2003=COLOUR_RGB('Steel - Satin',0.627450980392157,0.627450980392157,0.627450980392157);
#2004=COLOUR_RGB('Paint - Enamel Glossy (Red)',0.768627450980392,0.207843137254902,
0.152941176470588);
ENDSEC;
END-ISO-10303-21;
